<!-- Generated by IcoMoon.io -->
<svg version="1.1" xmlns="http://www.w3.org/2000/svg" width="58" height="32" viewBox="0 0 58 32">
<title>modal-1-desk</title>
<path fill="#f58b3d" opacity="0.25453134912100006" d="M46.999 25.599c0.539 3.691-12.54 6.099-23.798 4.419s-16.423-8.242-11.051-11.738c5.372-3.496 34.309 3.628 34.849 7.319z"></path>
<path fill="#f58b3d" d="M30.819 10.218c0.204-0.142 0.519-0.052 0.724 0.032 0.079 0.032 0.281 0.136 0.43 0.253-0.020-0.081-0.037-0.162-0.053-0.245-0.063-0.338-0.107-0.682-0.128-1.025-0.005-0.089 0.002-0.189 0.009-0.29v-0c0.002-0.034 0.005-0.069 0.007-0.103-0.008-0.008-0.014-0.019-0.016-0.034-0.001 0.006-0.001 0.011-0.002 0.015-0.001 0.006-0.001 0.009-0.002 0.010s-0.003-0.002-0.007-0.008c-0.001-0.002-0.003-0.005-0.005-0.007-0.151-0.207-0.279-0.441-0.296-0.698-0.015-0.218 0.181-0.63 0.458-0.344 0.124 0.127 0.092 1.022-0.094 1.077 0.050 0.296 0.112 0.592 0.191 0.884 0.012-0.002 0.024-0.002 0.035-0.001-0.001-0.073-0.001-0.152 0.002-0.179 0.028-0.235 0.242-0.711 0.583-0.619 0.262 0.071 0.101 0.364 0.012 0.492-0.144 0.206-0.306 0.296-0.512 0.403-0.004 0.044-0.035 0.070-0.072 0.079 0.138 0.472 0.319 0.932 0.556 1.367l0.006-0.028c0.030-0.132 0.065-0.286 0.087-0.318 0.116-0.169 0.373-0.376 0.61-0.276 0.498 0.21-0.042 0.815-0.466 0.881-0.018 0.022-0.036 0.040-0.056 0.050 0.082 0.131 0.17 0.26 0.264 0.385 0.141 0.188 0.293 0.376 0.452 0.563 0.005-0.146 0.068-0.471 0.086-0.506 0.109-0.212 0.422-0.431 0.676-0.28 0.286 0.17 0.027 0.491-0.136 0.637-0.067 0.060-0.397 0.278-0.514 0.279 0.384 0.44 0.808 0.872 1.24 1.289-0.036-0.187-0.082-0.7-0.077-0.757 0.027-0.294 0.238-0.765 0.654-0.65 0.404 0.111 0.225 0.6 0.087 0.833-0.084 0.141-0.199 0.284-0.339 0.383-0.025 0.018-0.058 0.032-0.091 0.047-0.040 0.017-0.079 0.035-0.105 0.058-0.023 0.021-0.030 0.044-0.037 0.067-0.007 0.025-0.015 0.049-0.041 0.070 0.233 0.224 0.468 0.444 0.699 0.657 0.109 0.101 0.22 0.2 0.333 0.297 0.061-0.023 0.149 0.007 0.144 0.087-0.001 0.012-0.004 0.022-0.007 0.031 0.085 0.072 0.171 0.144 0.257 0.216-0.002-0.021-0.001-0.050 0.003-0.090-0.062 0.081-0.060-0.037-0.057-0.127 0.001-0.032 0.001-0.060-0.001-0.075-0.009-0.058-0.021-0.115-0.033-0.172-0.025-0.122-0.050-0.243-0.049-0.369 0.003-0.267 0.187-0.715 0.576-0.556 0.357 0.146 0.227 0.542 0.093 0.79-0.085 0.157-0.202 0.297-0.324 0.431-0.022 0.024-0.046 0.056-0.070 0.089-0.036 0.048-0.071 0.095-0.096 0.112 0.332 0.272 0.672 0.537 1.011 0.801l0 0c0.152 0.118 0.304 0.237 0.455 0.356 0.007-0.026 0.012-0.052 0.017-0.076-0.010 0.010-0.022 0.014-0.039 0.013-0.004-0.020-0.011-0.047-0.019-0.079-0.093-0.39-0.378-1.58 0.393-1.349 0.565 0.169 0.166 1.205-0.255 1.567 0.256 0.202 0.509 0.407 0.757 0.618 0.179 0.153 0.353 0.311 0.52 0.474-0.087-0.211-0.168-0.485-0.114-0.702 0.078-0.317 0.443-0.616 0.799-0.436 0.444 0.226 0.102 0.534-0.218 0.823-0.163 0.148-0.322 0.29-0.367 0.414 0.531 0.535 0.985 1.13 1.288 1.807 0.33 0.736 0.636 1.726 0.466 2.55 0.031-0.362-0.102-0.817-0.196-1.137-0.013-0.043-0.025-0.084-0.036-0.122-0.141-0.496-0.341-0.978-0.605-1.429-0.423-0.723-0.981-1.336-1.626-1.893-0.147 0.047-0.306 0.134-0.438 0.205-0.081 0.044-0.152 0.083-0.203 0.103-0.247 0.097-0.72 0.237-0.878-0.070-0.155-0.302 0.24-0.471 0.484-0.539 0.236-0.065 0.449-0.058 0.67-0.004-0.341-0.277-0.691-0.546-1.041-0.814l-0-0c-0.064-0.049-0.128-0.099-0.193-0.148-0.089 0.067-0.187 0.163-0.291 0.266-0.331 0.325-0.723 0.71-1.073 0.396-0.528-0.475 0.482-0.958 0.912-0.92 0.053 0.005 0.104 0.015 0.154 0.029-0.439-0.341-0.871-0.69-1.28-1.062-0.073 0.012-0.19 0.111-0.33 0.23-0.315 0.267-0.749 0.634-1.076 0.345-0.236-0.209-0.155-0.534 0.073-0.72s0.561-0.186 0.843-0.124c0.122 0.027 0.234 0.079 0.339 0.142 0.004 0 0.009 0 0.013 0.001-0.402-0.371-0.807-0.75-1.196-1.142-0.007 0.002-0.014 0.004-0.021 0.006-0.024 0.026-0.063 0.036-0.099 0.030-0.020 0.006-0.040 0.013-0.061 0.019-0.309 0.098-0.705 0.223-1.013 0.169-0.226-0.040-0.432-0.208-0.24-0.416 0.156-0.169 0.579-0.145 0.785-0.105 0.101 0.020 0.21 0.076 0.32 0.133 0.046 0.024 0.093 0.048 0.138 0.069 0.012-0.022 0.033-0.036 0.056-0.043-0.385-0.394-0.752-0.801-1.085-1.227-0.101 0.014-0.213 0.055-0.328 0.097-0.277 0.101-0.575 0.209-0.789-0.024-0.316-0.344 0.278-0.544 0.56-0.511 0.095 0.011 0.189 0.036 0.28 0.068-0.242-0.35-0.428-0.724-0.557-1.117-0.001 0.001-0.002 0.001-0.004 0.002v0c-0.002 0.001-0.004 0.002-0.006 0.003 0.002-0.001 0.004-0.002 0.005-0.003s0.003-0.002 0.004-0.002c-0.013-0.039-0.025-0.079-0.037-0.118-0.022-0.011-0.043-0.020-0.052-0.023 0.128 0.081-0.413 0.121-0.514 0.128-0.224 0.016-0.524 0.023-0.688-0.146-0.138-0.141-0.13-0.35 0.039-0.468zM41.124 22.106c-0.010 0.119-0.033 0.229-0.077 0.319 0.033-0.103 0.058-0.209 0.077-0.319z"></path>
<path fill="#f1f447" opacity="0.2" d="M20.656 2.591c-0.149-0.103-0.379-0.037-0.529 0.024-0.058 0.023-0.205 0.098-0.314 0.183 0.014-0.058 0.027-0.117 0.039-0.177 0.046-0.244 0.078-0.494 0.094-0.741 0.004-0.065-0.001-0.137-0.006-0.21v-0c-0.002-0.025-0.003-0.050-0.005-0.074 0.006-0.006 0.010-0.014 0.012-0.025 0.001 0.005 0.001 0.008 0.001 0.011 0 0.004 0.001 0.007 0.001 0.007s0.002-0.002 0.005-0.006c0.001-0.002 0.002-0.003 0.004-0.005 0.111-0.15 0.204-0.319 0.216-0.504 0.011-0.157-0.132-0.455-0.334-0.249-0.091 0.092-0.067 0.739 0.068 0.779-0.036 0.214-0.082 0.428-0.14 0.64-0.009-0.001-0.017-0.002-0.026-0 0.001-0.053 0.001-0.11-0.001-0.13-0.020-0.17-0.177-0.514-0.426-0.447-0.191 0.052-0.074 0.263-0.009 0.356 0.105 0.149 0.223 0.214 0.373 0.291 0.003 0.032 0.026 0.051 0.053 0.057-0.101 0.341-0.233 0.674-0.406 0.988l-0.005-0.020c-0.022-0.095-0.048-0.207-0.064-0.23-0.085-0.122-0.272-0.271-0.445-0.199-0.363 0.152 0.031 0.589 0.34 0.637 0.013 0.016 0.026 0.029 0.041 0.036-0.060 0.095-0.124 0.188-0.193 0.278-0.103 0.136-0.214 0.272-0.33 0.407-0.004-0.106-0.049-0.341-0.062-0.366-0.079-0.153-0.308-0.311-0.493-0.202-0.209 0.123-0.020 0.355 0.099 0.46 0.049 0.043 0.29 0.201 0.375 0.202-0.281 0.318-0.591 0.631-0.906 0.933 0.026-0.135 0.061-0.506 0.057-0.548-0.020-0.213-0.173-0.553-0.477-0.47-0.295 0.080-0.165 0.434-0.064 0.603 0.061 0.102 0.146 0.206 0.247 0.277 0.018 0.013 0.042 0.023 0.066 0.034 0.029 0.013 0.058 0.025 0.076 0.042 0.017 0.015 0.022 0.032 0.027 0.049s0.011 0.035 0.030 0.050c-0.17 0.162-0.342 0.321-0.511 0.476-0.080 0.073-0.161 0.144-0.243 0.215-0.045-0.017-0.109 0.005-0.105 0.063 0 0.008 0.003 0.016 0.006 0.022-0.062 0.052-0.125 0.104-0.188 0.156 0.001-0.015 0.001-0.036-0.002-0.065 0.045 0.058 0.043-0.027 0.042-0.092-0-0.023-0.001-0.043 0.001-0.054 0.007-0.042 0.015-0.083 0.024-0.124 0.019-0.088 0.037-0.176 0.036-0.267-0.002-0.193-0.137-0.517-0.42-0.402-0.261 0.106-0.166 0.392-0.068 0.571 0.062 0.114 0.148 0.215 0.236 0.312 0.016 0.017 0.034 0.041 0.051 0.064 0.026 0.035 0.051 0.068 0.070 0.081-0.242 0.197-0.49 0.388-0.738 0.58l-0 0c-0.111 0.086-0.222 0.171-0.333 0.258-0.005-0.019-0.009-0.038-0.012-0.055 0.007 0.007 0.016 0.010 0.028 0.010 0.003-0.014 0.008-0.034 0.014-0.057 0.068-0.282 0.277-1.143-0.286-0.976-0.413 0.123-0.122 0.871 0.186 1.133-0.187 0.146-0.372 0.295-0.553 0.447-0.131 0.11-0.258 0.225-0.38 0.343 0.063-0.153 0.123-0.351 0.084-0.508-0.057-0.229-0.323-0.445-0.583-0.315-0.324 0.163-0.075 0.386 0.159 0.595 0.119 0.107 0.235 0.21 0.268 0.299-0.388 0.387-0.72 0.817-0.941 1.307-0.241 0.533-0.465 1.248-0.342 1.844-0.023-0.262 0.075-0.591 0.144-0.822 0.009-0.031 0.018-0.061 0.026-0.089 0.103-0.358 0.25-0.707 0.443-1.033 0.309-0.523 0.717-0.967 1.188-1.37 0.107 0.034 0.224 0.097 0.32 0.148 0.059 0.032 0.111 0.060 0.148 0.074 0.18 0.070 0.526 0.171 0.641-0.051 0.113-0.218-0.175-0.341-0.353-0.389-0.172-0.047-0.328-0.041-0.489-0.003 0.249-0.201 0.505-0.395 0.76-0.589 0.047-0.036 0.094-0.071 0.141-0.107 0.065 0.048 0.137 0.118 0.213 0.192 0.241 0.235 0.527 0.513 0.783 0.286 0.386-0.344-0.352-0.692-0.666-0.665-0.039 0.003-0.076 0.011-0.112 0.021 0.321-0.247 0.636-0.499 0.935-0.769 0.054 0.009 0.139 0.080 0.241 0.166v0c0.23 0.193 0.547 0.458 0.785 0.249 0.172-0.151 0.113-0.386-0.053-0.521s-0.41-0.135-0.615-0.089c-0.089 0.020-0.171 0.057-0.248 0.103-0.003 0-0.006 0-0.009 0 0.294-0.268 0.589-0.542 0.874-0.826 0.005 0.001 0.010 0.003 0.015 0.004 0.017 0.019 0.046 0.026 0.072 0.022 0.014 0.004 0.029 0.009 0.044 0.014l0 0c0.225 0.070 0.515 0.161 0.739 0.122 0.165-0.029 0.315-0.151 0.176-0.301-0.114-0.122-0.422-0.104-0.573-0.075-0.073 0.014-0.154 0.055-0.234 0.096-0.034 0.017-0.067 0.035-0.101 0.050-0.009-0.016-0.024-0.026-0.041-0.031 0.281-0.285 0.549-0.58 0.793-0.887 0.073 0.010 0.155 0.040 0.239 0.070 0.203 0.073 0.42 0.151 0.576-0.018 0.23-0.249-0.203-0.393-0.409-0.37-0.070 0.008-0.138 0.026-0.204 0.050 0.177-0.253 0.312-0.524 0.407-0.808 0.001 0 0.002 0.001 0.003 0.001s0.003 0.001 0.004 0.002c-0.001-0.001-0.003-0.001-0.004-0.002s-0.002-0.001-0.003-0.002c0.009-0.028 0.019-0.057 0.027-0.086 0.016-0.008 0.031-0.014 0.038-0.017-0.094 0.059 0.301 0.087 0.375 0.092 0.163 0.012 0.382 0.016 0.503-0.105 0.101-0.102 0.095-0.253-0.028-0.338zM13.12 11.167c0.007 0.080 0.029 0.152 0.071 0.212-0.031-0.068-0.054-0.139-0.071-0.212z"></path>
<path fill="#b45661" opacity="0.48999999999999994" d="M36.709 16.63c0.801-0.038 1.792 0.39 1.878 1.187 0.062 0.579 0.043 1.156 0.139 1.735 0.077 0.462 0.239 0.906 0.461 1.326 0.213 0.405 0.655 0.749 0.77 1.182 0.073 0.276 0.032 0.663-0.069 0.933-0.123 0.328-0.057 0.302 0.187 0.577 0.48 0.539 0.912 1.091 1.218 1.735 0.44 0.927 0.729 2.010 0.565 3.025-0.021 0.129-0.045 0.591-0.239 0.623-0.217 0.036-0.115-0.228-0.104-0.314 0.074-0.545 0.139-1.021 0.050-1.575-0.343-2.136-2.017-3.543-3.108-5.355-0.060-0.093-0.186-0.316-0.275-0.463-0.139-0.232-0.279-0.673-0.467-0.845-0.354-0.324-0.029 0.327 0.040 0.451 0.087 0.157 0.183 0.324 0.273 0.462 0.409 0.639 0.866 1.336 1.288 1.994-1.827 0.381-3.114-1.629-3.604-2.95-0.404-1.089-0.887-3.634 0.995-3.727z"></path>
<path fill="#e7502f" opacity="0.48999999999999994" d="M47.448 14.608c-1.339 0.097-2.199 0.906-2.599 2.037-0.216 0.609-0.24 1.236-0.36 1.862-0.18 0.942-0.568 1.657-1.327 2.328-0.235 0.208-0.408 0.421-0.531 0.65-0.244 0.228-0.457 0.486-0.613 0.802-0.199 0.403-0.256 0.886-0.026 1.288 0.062 0.108 0.217 0.325 0.377 0.423-0.6 1.168-0.929 2.448-0.892 3.726 0.023 0.771 0.064 1.543 0.112 2.314 0.013 0.207 0.087 0.549 0.197 0.201 0.101-0.317-0.026-0.816-0.038-1.147-0.057-1.615-0.106-3.084 0.621-4.593 0.076-0.158 0.157-0.315 0.241-0.471 0.005-0.003 0.010-0.006 0.014-0.009 0.003 0.002 0.006 0.005 0.009 0.007 0.005-0.009 0.013-0.019 0.021-0.031 0.024-0.023 0.045-0.052 0.065-0.084 0.064-0.082 0.137-0.178 0.138-0.23 0-0-0-0.001-0-0.001 0.45-0.672 0.965-1.307 1.492-1.929-0.004 0.005 0.571-0.712 0.482-0.316-0.043 0.191-0.466 0.554-0.636 0.756-0.378 0.45-0.821 1.020-1.19 1.571-0.050 0.026-0.12 0.154-0.17 0.25-0.028 0.048-0.054 0.097-0.080 0.14 1.306 0.395 2.322-0.401 3.015-1.326 0.001-0.001 0.002-0.002 0.002-0.003 0.211-0.256 0.427-0.509 0.697-0.712 0.45-0.337 0.932-0.397 1.463-0.563 1.447-0.453 2.063-2.169 2.258-3.443 0.221-1.437-0.858-3.64-2.742-3.498z"></path>
<path fill="#e7502f" opacity="0.48999999999999994" d="M44.802 10.585c-1.375 1.309-2.039 3.125-2.565 4.832-0.587 1.907-0.975 3.842-0.99 5.825-0.010 1.302-0.048 2.613 0.035 3.913 0.029 0.462 0.080 0.925 0.16 1.382 0.007 0.038 0.186 1.058 0.357 0.82 0.097-0.135-0.184-1.059-0.205-1.212-0.119-0.866-0.147-1.739-0.141-2.611 0.010-1.436-0.037-2.866 0.122-4.297 0.024-0.214 0.042-0.438 0.098-0.647 0.059-0.222-0.016-0.125 0.176-0.213 0.186-0.086 0.417-0.073 0.61-0.181 0.767-0.426 1.16-1.519 1.465-2.236 0.349-0.82 0.562-1.695 0.731-2.559 0.125-0.634 0.214-1.265 0.264-1.907 0.016-0.203 0.017-0.414 0.060-0.613 0.012-0.054 0.071-0.149 0.068-0.196-0.005-0.101-0.071-0.16-0.076-0.244-0.058 0.047-0.114 0.096-0.169 0.146z"></path>
<path fill="#e7502f" opacity="0.48999999999999994" d="M37.306 28.026c0 2.165 1.918 3.92 4.284 3.92s4.284-1.755 4.284-3.92z"></path>
<path fill="#b45661" opacity="0.48999999999999994" d="M44.527 24.594c1.060-0.071 2.244 0.711 2.756 1.526 0.412 0.657 0.343 1.519 0.088 2.217-0.17 0.467-0.543 1.133-1.163 1.139-0.777 0.008-0.814-0.87-0.829-1.383-0.020-0.682-0.114-1.277-0.702-1.742-0.073-0.057-0.149-0.111-0.225-0.165-0.068-0.048-0.135-0.095-0.2-0.146-0.010-0.008-0.021-0.016-0.031-0.024-0.208-0.16-0.426-0.328-0.453-0.591-0.038-0.382 0.197-0.451 0.557-0.38 0.012 0.002 0.043 0.013 0.086 0.028 0.184 0.064 0.576 0.2 0.501 0.037-0.028-0.061-0.13-0.11-0.259-0.146-0.333-0.033-0.73-0.072-0.844-0.049-1.232 0.247-1.712 1.809-1.839 2.801-0.014 0.107-0.025 0.215-0.035 0.322h-0.226c0.016-0.26 0.037-0.519 0.084-0.776 0.182-0.983 0.749-2.426 1.995-2.586 0.046-0.006 0.215-0.007 0.42 0.004 0.097-0.050 0.206-0.080 0.32-0.087z"></path>
<path fill="#b45661" opacity="0.25" d="M18.539 9.471c0.247-0.322 0.704-1.139 1.051-1.254 0.224-0.074 0.158 0.692 0.161 0.838 0.011 0.565-0.049 1.127-0.124 1.687-0.134 1.011-0.571 1.911-1.171 2.771-0.309 0.443-0.671 0.891-1.172 1.167-0.231 0.127-0.509 0.148-0.737 0.258-0.265 0.128-0.121 0.024-0.241 0.278-0.166 0.351-0.219 0.805-0.296 1.18-0.353 1.722-1.208 10.823-1.059 12.574 0.013 0.155-0.223 0.192-0.235 0.003-0.063-1.005 0.48-7.963 0.754-10.238s0.551-4.286 0.829-5.073c0.337-0.955 0.947-2.104 1.454-2.994 0.236-0.414 0.492-0.813 0.785-1.196z"></path>
<path fill="#f1f447" opacity="0.25" d="M20.369 20.631c0.642-0.431 1.337 0.382 0.756 0.814-0.321 0.238-0.657 0.154-0.846-0.045-0.123 0.137-0.237 0.28-0.348 0.401-0.336 0.368-0.654 0.745-0.957 1.131-0.631 0.801-1.171 1.648-1.736 2.479-0.558 0.82-1.111 1.645-1.616 2.486-0.428 0.713-0.999 1.551-1.146 2.332 0.222-1.657 1.066-3.249 2.072-4.71 0.997-1.449 2.141-3.031 3.685-4.174-0.157-0.211-0.161-0.513 0.137-0.713z"></path>
<path fill="#b45661" opacity="0.25" d="M8.191 16.591c0.359 0.064 0.946 0.807 1.242 1.091 0.352 0.337 0.671 0.695 0.972 1.071 0.648 0.809 1.227 1.669 1.72 2.566 0.803 1.462 1.446 2.963 1.913 4.556 0.286 0.975 0.471 1.985 0.58 2.988 0.021 0.189 0.238 1.648-0.075 1.687-0.281 0.035-0.194-1.108-0.208-1.263-0.153-1.754-0.612-3.461-1.251-5.114-0.139-0.36-0.268-0.801-0.491-1.125-0.16-0.233-0.001-0.152-0.283-0.24-0.242-0.076-0.517-0.057-0.764-0.15-0.538-0.202-0.968-0.593-1.345-0.987-0.733-0.766-1.314-1.594-1.617-2.575-0.168-0.544-0.322-1.091-0.408-1.652-0.022-0.145-0.216-0.894 0.015-0.852z"></path>
<path fill="#e7502f" opacity="0.25" d="M9.609 4.223c1.353 2.146 2.464 4.504 3.182 6.893 0.435 1.447 0.739 2.932 1.041 4.406 0.468 2.282 0.91 4.565 1.036 6.888 0.127 2.336 0.377 5.031-0.459 7.282 0.418-2.285 0.020-4.717-0.050-7.016-0.034-1.098-0.131-2.184-0.259-3.275-0.124-1.058-0.327-2.112-0.516-3.162-0.092-0.511-0.189-1.022-0.287-1.532-0.029-0.152-0.042-0.604-0.147-0.708s-0.648-0.147-0.819-0.224c-0.343-0.155-0.665-0.374-0.95-0.607-0.547-0.445-1.023-1.027-1.398-1.6-0.869-1.327-1.216-2.946-1.199-4.483 0.003-0.298 0.528-3.511 0.317-3.555 0.013-0.014 0.025-0.028 0.036-0.042 0.159 0.244 0.316 0.49 0.471 0.737z"></path>
<path fill="#e7502f" opacity="0.25" d="M24.21 11.965c0.021-0.028 0.157-0.219 0.088-0.207 0.139-0.025-0.192 0.211 0.156 0.066-0.165 0.142-0.070 0.327-0.067 0.519 0.003 0.311-0.053 0.62-0.117 0.924-0.101 0.481-0.252 0.949-0.471 1.397-0.477 0.976-1.287 1.915-2.248 2.524-0.475 0.301-0.94 0.404-1.481 0.542-0.342 0.088-0.369 0.249-0.551 0.553-0.378 0.632-0.749 1.262-1.082 1.916-0.398 0.78-0.784 1.562-1.148 2.356-1.228 2.675-2.227 5.447-2.751 8.316-0.013-1.69 0.415-3.432 0.954-5.043 0.393-1.174 0.904-2.306 1.449-3.426 0.132-0.272 0.332-0.62 0.388-0.92 0.039-0.21-0.081-0.412-0.136-0.633-0.215-0.861-0.199-1.826-0.011-2.692 0.208-0.955 0.808-1.398 1.824-1.533 0.371-0.049 0.844-0.031 1.184-0.176 0.371-0.158 0.524-0.676 0.735-1.009 0.567-0.894 1.24-1.752 2.013-2.506 0.214-0.209 0.444-0.401 0.689-0.58 0.154-0.113 0.48-0.251 0.584-0.39z"></path>
<path fill="#f1f447" opacity="0.25" d="M12.53 29.354c-0.026-0.162 0.111-0.308 0.29-0.308h3.605c0.179 0 0.316 0.146 0.29 0.308l-0.279 1.728c-0.085 0.527-0.579 0.917-1.161 0.917h-1.305c-0.582 0-1.076-0.39-1.161-0.917l-0.279-1.728z"></path>
<path fill="#f58b3d" d="M9.571 29.93c0 1.143 0.099 2.070 1.422 2.070s1.422-0.927 1.422-2.070z"></path>
<path fill="#f58b3d" d="M11.387 29.217c-0.049 0.077-0.092 0.155-0.13 0.234-0.001-0.164 0.009-0.328 0.036-0.496 0.046-0.286 0.117-0.571 0.183-0.855 0.048-0.204 0.045-0.571 0.225-0.734 0.050-0.035 0.061 0.034 0.061 0.064 0.001 0.006-0-0.122-0.048-0.1-0.286 0.135-0.378 0.56-0.47 0.772-0.134 0.31-0.247 0.628-0.294 0.951-0.012 0.082-0.018 0.163-0.020 0.244-0.010-0.022-0.019-0.044-0.029-0.065-0.165-0.354-0.388-0.699-0.665-1.018-0.068-0.078-0.928-0.852-0.995-0.734 0.007 0.017 0.021 0.032 0.042 0.043 0.001 0.001 0.001 0 0.001-0.001 0.050 0.075 0.194 0.19 0.239 0.255 0.113 0.164 0.2 0.339 0.289 0.51 0.188 0.362 0.362 0.727 0.531 1.094 0.039 0.085 0.080 0.17 0.122 0.255-0.431-0.569-1.006-1.085-1.797-1.38 0.27 0.126 0.447 0.362 0.63 0.544 0.22 0.219 0.452 0.431 0.672 0.649 0.26 0.258 0.566 0.529 0.816 0.814 0.242 0.466 0.478 0.932 0.623 1.421-0.060-0.169-0.005-0.403-0.015-0.58-0.008-0.141-0.026-0.281-0.051-0.421 0.031 0.063 0.057 0.126 0.069 0.185-0.011-0.099-0.023-0.196-0.037-0.294 0.035-0.091 0.069-0.176 0.092-0.246 0.118-0.359 0.258-0.712 0.448-1.057 0.177-0.318 0.379-0.633 0.6-0.938 0.103-0.142 0.207-0.284 0.311-0.425 0.068-0.093 0.132-0.241 0.227-0.33-0.611 0.511-1.278 1.026-1.666 1.639z"></path>
<path fill="#f58b3d" d="M48.436 5.894c-0.175-0.534-0.586-0.953-1.013-1.336-0.831-0.746-1.277-1.207-1.574-2.299-0.174-0.642-0.351-1.322-0.904-1.788-0.402-0.339-1.094-0.624-1.632-0.381-0.827 0.452-1.050 1.379-0.966 2.209 0.103 1.029 0.629 1.664 1.638 2.043 0.569 0.213 0.947 0.495 1.255 0.986 0.247 0.392 0.391 0.884 0.701 1.24 0.464 0.532 1.044 0.768 1.76 0.68-0.67-1.128-1.453-2.267-2.398-3.217-0.088-0.095-0.61-0.461-0.505-0.624 0.116-0.179 0.651 0.494 0.647 0.49 0.274 0.288 0.528 0.595 0.778 0.904-0.001 0-0.001 0-0.002 0.001 0.257 0.317 0.512 0.639 0.761 0.965 0.101 0.138 0.199 0.278 0.294 0.421 0.138 0.21 0.358 0.806 0.584 0.936 0.048 0.028 0.093 0.043 0.135 0.049 0.154 0.231 0.304 0.464 0.447 0.7 0.373 0.616 0.693 1.266 0.84 1.961 0.043 0.203 0.013 0.962 0.164 1.108 0.277 0.268 0.196-0.248 0.179-0.404-0.138-1.289-0.644-2.388-1.378-3.472 0.226-0.27 0.258-0.956 0.187-1.173z"></path>
<path fill="#f58b3d" d="M38.957 6.517c0.292-0.315 0.993-0.368 1.422-0.347 0.531 0.026 1.076 0.144 1.581 0.287 0.832 0.235 1.64 0.665 2.373 1.081 0.088 0.050 1.176 0.649 1.080 0.754s-1.163-0.607-1.401-0.729c-0.508-0.261-0.973-0.571-1.533-0.744-0.58-0.179-1.192-0.25-1.802-0.245-0.078 0.001-0.333-0.049-0.339 0.057-0.005 0.104 0.417 0.050 0.491 0.050 0.307 0.003 0.617 0.029 0.92 0.078 0.568 0.091 1.102 0.275 1.588 0.558-0.136 0.289-0.461 0.422-0.802 0.35-0.295-0.062-0.583-0.216-0.871-0.261-0.199-0.031-0.398-0.012-0.591 0.039-0.509 0.135-0.802 0.412-1.362 0.22-0.439-0.151-1.172-0.694-0.753-1.146z"></path>
<path fill="#f58b3d" d="M37.703 1.449c-0.648-0.043-1.371 0.43-1.684 0.922-0.252 0.397-0.21 0.918-0.054 1.34 0.104 0.282 0.332 0.685 0.711 0.689 0.474 0.005 0.497-0.526 0.506-0.836 0.012-0.413 0.070-0.772 0.429-1.053 0.044-0.035 0.091-0.067 0.138-0.1 0.041-0.029 0.083-0.058 0.122-0.088 0.006-0.005 0.013-0.010 0.019-0.015 0.127-0.097 0.26-0.198 0.277-0.357 0.023-0.231-0.12-0.272-0.34-0.229-0.007 0.001-0.026 0.008-0.053 0.017-0.112 0.038-0.352 0.121-0.306 0.022 0.017-0.037 0.079-0.066 0.158-0.088 0.204-0.020 0.446-0.043 0.516-0.029 0.753 0.149 1.046 1.093 1.124 1.693 0.009 0.068 0.016 0.136 0.022 0.204h0.138c-0.010-0.16-0.022-0.32-0.052-0.479-0.111-0.594-0.458-1.466-1.219-1.563-0.028-0.004-0.131-0.004-0.256 0.002-0.059-0.030-0.126-0.048-0.196-0.052z"></path>
</svg>
