<svg aria-hidden="true" style="position: absolute; width: 0; height: 0; overflow: hidden;" version="1.1"
    xmlns="http://www.w3.org/2000/svg" xmlns:xlink="http://www.w3.org/1999/xlink">
    <defs>
        <symbol id="icon-btn" viewBox="0 0 31 32">
            <path
                d="M21.314 13.667c0.018-0.116-0.061-0.226-0.177-0.244l-1.896-0.3c-0.116-0.018-0.226 0.061-0.244 0.177s0.061 0.226 0.177 0.244l1.686 0.267-0.267 1.686c-0.018 0.116 0.061 0.226 0.177 0.244s0.226-0.061 0.244-0.177l0.3-1.896zM11.219 21.079l10.010-7.273-0.251-0.345-10.010 7.273 0.251 0.345z">
            </path>
            <path
                d="M28.301 16.802c0.011-0.166 0.044-0.322 0.1-0.467 0.058-0.145 0.126-0.257 0.203-0.337l0.207 0.137c-0.067 0.078-0.127 0.179-0.182 0.304-0.052 0.125-0.082 0.258-0.092 0.398-0.013 0.192 0.008 0.331 0.061 0.42 0.056 0.088 0.133 0.136 0.233 0.142 0.074 0.005 0.133-0.016 0.177-0.061 0.047-0.043 0.082-0.102 0.108-0.178 0.028-0.075 0.053-0.159 0.074-0.253s0.046-0.187 0.072-0.28c0.026-0.091 0.061-0.173 0.105-0.247 0.046-0.074 0.105-0.133 0.177-0.177 0.072-0.041 0.166-0.058 0.281-0.051 0.11 0.007 0.206 0.044 0.289 0.111s0.145 0.161 0.186 0.282c0.043 0.123 0.059 0.271 0.048 0.442-0.009 0.13-0.035 0.259-0.079 0.387-0.042 0.128-0.093 0.232-0.155 0.313l-0.211-0.133c0.067-0.085 0.117-0.178 0.149-0.279 0.035-0.1 0.055-0.202 0.062-0.304 0.012-0.181-0.011-0.318-0.069-0.409-0.056-0.088-0.132-0.136-0.229-0.142-0.077-0.005-0.138 0.014-0.185 0.057-0.047 0.046-0.085 0.106-0.116 0.181-0.028 0.078-0.053 0.162-0.074 0.253-0.022 0.094-0.047 0.186-0.076 0.276-0.027 0.093-0.062 0.177-0.105 0.251-0.041 0.077-0.097 0.136-0.169 0.177-0.070 0.044-0.159 0.063-0.269 0.055-0.118-0.008-0.217-0.048-0.3-0.12-0.080-0.069-0.14-0.168-0.181-0.297-0.038-0.126-0.051-0.277-0.039-0.453z">
            </path>
            <path
                d="M29.967 19.45c-0.039 0.159-0.103 0.291-0.195 0.395-0.089 0.107-0.204 0.18-0.345 0.217-0.141 0.040-0.307 0.036-0.496-0.009l-1.138-0.276 0.064-0.265 1.112 0.27c0.206 0.050 0.375 0.036 0.505-0.044 0.132-0.076 0.22-0.207 0.266-0.394 0.034-0.139 0.035-0.268 0.003-0.387-0.030-0.115-0.092-0.214-0.185-0.298-0.091-0.080-0.211-0.138-0.361-0.174l-1.030-0.25 0.064-0.265 2.769 0.671-0.064 0.265-1.347-0.327 0.113-0.028c0.127 0.097 0.213 0.223 0.26 0.379 0.049 0.157 0.050 0.33 0.004 0.519z">
            </path>
            <path
                d="M27.201 21.162c0.083-0.176 0.196-0.317 0.341-0.421 0.146-0.101 0.308-0.16 0.485-0.176 0.179-0.015 0.36 0.020 0.541 0.104 0.183 0.086 0.325 0.201 0.427 0.348s0.159 0.307 0.172 0.483c0.014 0.176-0.021 0.353-0.105 0.532-0.085 0.181-0.199 0.322-0.343 0.425-0.145 0.105-0.305 0.164-0.482 0.177-0.177 0.016-0.357-0.019-0.54-0.104-0.181-0.084-0.323-0.201-0.427-0.348-0.102-0.144-0.161-0.305-0.176-0.485-0.013-0.178 0.023-0.357 0.106-0.535zM27.421 21.264c-0.062 0.132-0.088 0.263-0.077 0.392 0.013 0.13 0.059 0.249 0.138 0.357 0.081 0.111 0.192 0.2 0.333 0.266 0.144 0.067 0.283 0.096 0.418 0.085 0.134-0.008 0.253-0.050 0.359-0.125 0.108-0.074 0.192-0.176 0.253-0.305s0.085-0.26 0.072-0.39c-0.010-0.129-0.055-0.249-0.133-0.359s-0.189-0.199-0.333-0.266c-0.141-0.066-0.281-0.095-0.418-0.085-0.135 0.010-0.256 0.053-0.364 0.126-0.106 0.075-0.189 0.176-0.248 0.304z">
            </path>
            <path
                d="M25.92 23.326c0.103-0.14 0.228-0.244 0.375-0.311 0.149-0.065 0.31-0.087 0.482-0.066 0.172 0.025 0.348 0.102 0.525 0.232s0.303 0.273 0.377 0.428c0.076 0.157 0.104 0.315 0.084 0.476s-0.081 0.312-0.186 0.454c-0.113 0.155-0.25 0.268-0.41 0.338-0.159 0.074-0.327 0.1-0.505 0.078-0.176-0.020-0.345-0.091-0.508-0.21-0.165-0.121-0.284-0.262-0.356-0.423s-0.098-0.329-0.078-0.504c0.019-0.173 0.085-0.337 0.199-0.492zM25.95 22.058l2.227 1.631-0.154 0.211-0.489-0.358-0.31-0.26-0.351-0.209-1.084-0.794 0.161-0.22zM26.126 23.453c-0.085 0.116-0.135 0.238-0.15 0.366-0.013 0.13 0.009 0.257 0.064 0.38 0.058 0.125 0.15 0.233 0.276 0.326s0.256 0.146 0.391 0.162c0.134 0.016 0.262-0.002 0.382-0.053s0.223-0.135 0.308-0.251c0.085-0.115 0.134-0.239 0.149-0.372 0.013-0.13-0.009-0.257-0.064-0.38-0.057-0.121-0.149-0.228-0.275-0.32s-0.256-0.148-0.391-0.168c-0.134-0.016-0.262 0.002-0.382 0.053-0.12 0.055-0.222 0.14-0.307 0.256z">
            </path>
            <path
                d="M24.76 27.412c-0.13 0.1-0.263 0.163-0.399 0.187-0.137 0.028-0.272 0.013-0.405-0.046-0.135-0.057-0.262-0.163-0.381-0.317l-0.717-0.926 0.216-0.167 0.7 0.905c0.13 0.168 0.27 0.262 0.421 0.281 0.15 0.023 0.302-0.024 0.454-0.142 0.113-0.088 0.195-0.188 0.244-0.3 0.049-0.109 0.063-0.224 0.042-0.348-0.021-0.119-0.079-0.24-0.173-0.361l-0.649-0.838 0.216-0.167 1.234 1.594-0.207 0.16-0.338-0.437 0.097 0.056c0.039 0.154 0.027 0.307-0.034 0.458-0.060 0.153-0.167 0.289-0.321 0.408z">
            </path>
            <path
                d="M21.552 27.014c0.174-0.087 0.351-0.126 0.529-0.118 0.178 0.012 0.341 0.066 0.49 0.163 0.15 0.1 0.27 0.239 0.359 0.417 0.090 0.181 0.13 0.36 0.119 0.537s-0.067 0.339-0.165 0.486c-0.099 0.147-0.236 0.264-0.412 0.352-0.179 0.089-0.356 0.129-0.532 0.12-0.179-0.008-0.341-0.061-0.488-0.16-0.149-0.097-0.269-0.237-0.359-0.417-0.089-0.179-0.129-0.358-0.119-0.538 0.009-0.176 0.064-0.339 0.163-0.489 0.101-0.148 0.239-0.265 0.416-0.354zM21.661 27.23c-0.131 0.065-0.232 0.151-0.304 0.259-0.071 0.11-0.109 0.232-0.113 0.366-0.006 0.137 0.026 0.276 0.096 0.416 0.071 0.142 0.163 0.251 0.275 0.326 0.11 0.077 0.23 0.119 0.359 0.126 0.131 0.009 0.26-0.018 0.388-0.082s0.228-0.151 0.299-0.261c0.072-0.108 0.112-0.229 0.119-0.364s-0.025-0.274-0.096-0.416c-0.070-0.14-0.162-0.248-0.275-0.326-0.112-0.076-0.234-0.118-0.364-0.127-0.129-0.007-0.257 0.021-0.383 0.084z">
            </path>
            <path
                d="M19.846 27.773l1.228 1.771-0.253 0.063-1.126-1.646 0.115-0.029-0.234 1.987-0.227 0.057-1.137-1.643 0.115-0.029-0.227 1.985-0.242 0.061 0.251-2.141 0.25-0.063 1.084 1.542-0.078 0.020 0.231-1.871 0.25-0.063z">
            </path>
            <path
                d="M15.599 28.327c0.166 0.005 0.323 0.033 0.47 0.084 0.147 0.053 0.261 0.117 0.344 0.191l-0.129 0.211c-0.080-0.064-0.183-0.121-0.31-0.171-0.127-0.048-0.26-0.073-0.401-0.078-0.192-0.006-0.331 0.019-0.417 0.075-0.086 0.059-0.131 0.138-0.134 0.238-0.002 0.074 0.020 0.132 0.068 0.175 0.045 0.045 0.105 0.079 0.181 0.102 0.076 0.025 0.161 0.047 0.255 0.066s0.188 0.039 0.282 0.063c0.091 0.023 0.175 0.055 0.251 0.096 0.076 0.043 0.137 0.1 0.183 0.171 0.044 0.071 0.064 0.163 0.061 0.279-0.003 0.11-0.037 0.208-0.101 0.293s-0.156 0.15-0.275 0.195c-0.122 0.047-0.268 0.068-0.44 0.063-0.13-0.004-0.26-0.026-0.39-0.066-0.129-0.037-0.236-0.086-0.318-0.144l0.126-0.215c0.088 0.064 0.182 0.111 0.284 0.139 0.101 0.031 0.203 0.049 0.306 0.052 0.182 0.006 0.317-0.022 0.406-0.084 0.086-0.059 0.131-0.137 0.134-0.234 0.002-0.077-0.019-0.138-0.063-0.183-0.047-0.045-0.109-0.081-0.185-0.109-0.079-0.025-0.164-0.047-0.255-0.066-0.094-0.018-0.187-0.040-0.278-0.066-0.094-0.023-0.179-0.055-0.254-0.096-0.078-0.038-0.139-0.093-0.183-0.163-0.047-0.068-0.068-0.157-0.065-0.267 0.004-0.118 0.040-0.219 0.109-0.304 0.067-0.082 0.163-0.146 0.29-0.191 0.124-0.042 0.275-0.061 0.451-0.055z">
            </path>
            <path
                d="M13.021 30.081c-0.16-0.033-0.294-0.093-0.402-0.181-0.11-0.086-0.187-0.198-0.228-0.337-0.044-0.14-0.047-0.305-0.007-0.496l0.237-1.147 0.267 0.055-0.232 1.12c-0.043 0.208-0.023 0.376 0.061 0.503 0.081 0.129 0.215 0.213 0.403 0.252 0.14 0.029 0.269 0.025 0.386-0.010 0.114-0.034 0.211-0.099 0.291-0.195 0.077-0.094 0.131-0.216 0.162-0.366l0.215-1.038 0.267 0.055-0.577 2.79-0.267-0.055 0.281-1.357 0.032 0.112c-0.092 0.13-0.216 0.221-0.37 0.273-0.155 0.054-0.328 0.062-0.518 0.022z">
            </path>
            <path
                d="M11.24 27.387c0.179 0.076 0.324 0.184 0.434 0.325 0.107 0.142 0.171 0.302 0.194 0.478 0.022 0.179-0.006 0.36-0.084 0.544-0.079 0.186-0.189 0.333-0.332 0.439s-0.301 0.17-0.477 0.19c-0.175 0.020-0.354-0.008-0.536-0.084-0.184-0.078-0.33-0.187-0.437-0.327-0.11-0.141-0.175-0.299-0.195-0.474-0.023-0.176 0.005-0.358 0.084-0.544 0.078-0.184 0.188-0.33 0.332-0.439 0.14-0.108 0.299-0.172 0.478-0.194 0.178-0.019 0.357 0.009 0.539 0.086zM11.146 27.61c-0.134-0.057-0.266-0.078-0.395-0.063-0.13 0.017-0.247 0.068-0.352 0.151-0.108 0.085-0.193 0.199-0.254 0.343-0.062 0.146-0.085 0.287-0.070 0.421 0.013 0.133 0.059 0.252 0.138 0.354 0.078 0.105 0.183 0.186 0.315 0.241s0.263 0.075 0.393 0.058c0.129-0.015 0.247-0.064 0.354-0.147s0.192-0.197 0.254-0.343c0.061-0.144 0.084-0.284 0.070-0.421-0.015-0.134-0.062-0.254-0.14-0.359-0.079-0.103-0.183-0.182-0.313-0.236z">
            </path>
            <path
                d="M9.031 26.187c0.144 0.098 0.252 0.219 0.324 0.364 0.071 0.147 0.098 0.306 0.083 0.479-0.018 0.173-0.089 0.351-0.213 0.533s-0.262 0.313-0.414 0.392c-0.154 0.081-0.312 0.115-0.473 0.102s-0.315-0.070-0.461-0.169c-0.159-0.108-0.276-0.24-0.353-0.397-0.080-0.156-0.112-0.323-0.096-0.501 0.014-0.176 0.078-0.348 0.192-0.515 0.115-0.169 0.252-0.293 0.41-0.372s0.325-0.11 0.502-0.096c0.174 0.013 0.34 0.073 0.499 0.18zM10.301 26.17l-1.551 2.284-0.216-0.147 0.341-0.502 0.249-0.319 0.197-0.358 0.755-1.112 0.226 0.153zM8.911 26.398c-0.119-0.080-0.243-0.126-0.372-0.136-0.131-0.008-0.257 0.018-0.378 0.078-0.123 0.062-0.228 0.158-0.316 0.287s-0.137 0.261-0.148 0.396c-0.011 0.135 0.011 0.261 0.067 0.38s0.143 0.218 0.262 0.298c0.119 0.080 0.244 0.125 0.377 0.135 0.131 0.008 0.257-0.018 0.378-0.078 0.119-0.061 0.223-0.157 0.31-0.286s0.139-0.262 0.153-0.397c0.011-0.135-0.011-0.261-0.067-0.38-0.059-0.118-0.148-0.217-0.267-0.297z">
            </path>
            <path
                d="M4.907 25.181c-0.105-0.126-0.172-0.256-0.202-0.392-0.033-0.136-0.023-0.271 0.032-0.406 0.053-0.137 0.154-0.268 0.303-0.392l0.9-0.749 0.175 0.209-0.88 0.732c-0.163 0.136-0.252 0.279-0.266 0.431-0.017 0.151 0.035 0.3 0.158 0.448 0.092 0.11 0.195 0.188 0.309 0.233 0.111 0.045 0.227 0.054 0.349 0.029 0.119-0.026 0.237-0.087 0.355-0.186l0.815-0.678 0.175 0.209-1.55 1.29-0.167-0.201 0.425-0.354-0.053 0.099c-0.153 0.044-0.306 0.038-0.459-0.017-0.155-0.054-0.295-0.156-0.42-0.305z">
            </path>
            <path
                d="M5.191 21.97c0.093 0.171 0.139 0.345 0.138 0.524-0.005 0.178-0.053 0.343-0.145 0.495-0.094 0.153-0.229 0.278-0.404 0.374-0.178 0.097-0.355 0.143-0.533 0.138s-0.342-0.054-0.492-0.147-0.272-0.226-0.367-0.399c-0.096-0.175-0.143-0.351-0.14-0.527 0.001-0.179 0.049-0.343 0.142-0.493 0.092-0.152 0.226-0.277 0.404-0.374 0.175-0.096 0.353-0.142 0.533-0.138 0.177 0.003 0.342 0.051 0.495 0.145 0.151 0.095 0.274 0.229 0.369 0.402zM4.979 22.086c-0.070-0.128-0.16-0.226-0.27-0.294-0.112-0.067-0.236-0.1-0.37-0.1-0.138-0.001-0.275 0.036-0.412 0.111-0.139 0.076-0.245 0.172-0.316 0.287-0.073 0.112-0.11 0.234-0.112 0.363-0.004 0.131 0.028 0.259 0.097 0.385s0.159 0.222 0.272 0.289c0.11 0.068 0.233 0.103 0.368 0.105s0.273-0.035 0.412-0.111c0.137-0.075 0.242-0.17 0.316-0.287 0.071-0.115 0.109-0.238 0.114-0.368 0.002-0.13-0.031-0.256-0.098-0.38z">
            </path>
            <path
                d="M4.367 20.3l-1.728 1.287-0.072-0.251 1.606-1.18 0.033 0.114-1.994-0.167-0.065-0.225 1.603-1.191 0.033 0.114-1.992-0.159-0.069-0.24 2.149 0.178 0.071 0.247-1.504 1.135-0.022-0.078 1.878 0.168 0.071 0.247z">
            </path>
            <path
                d="M3.657 16.147c0.001 0.166-0.021 0.324-0.065 0.473-0.047 0.149-0.107 0.266-0.178 0.351l-0.216-0.121c0.061-0.082 0.114-0.188 0.159-0.316 0.043-0.128 0.063-0.263 0.062-0.404-0.001-0.192-0.032-0.33-0.092-0.414-0.062-0.084-0.143-0.126-0.243-0.125-0.074 0.001-0.132 0.025-0.172 0.074-0.043 0.046-0.075 0.108-0.095 0.185-0.022 0.077-0.041 0.163-0.056 0.258s-0.032 0.19-0.052 0.285c-0.020 0.092-0.049 0.177-0.086 0.254-0.040 0.077-0.095 0.14-0.164 0.189-0.069 0.047-0.161 0.070-0.276 0.071-0.11 0.001-0.209-0.029-0.296-0.090s-0.156-0.15-0.206-0.267c-0.052-0.12-0.079-0.266-0.080-0.437-0.001-0.131 0.016-0.261 0.051-0.392 0.032-0.131 0.076-0.239 0.132-0.324l0.22 0.117c-0.061 0.090-0.104 0.186-0.128 0.289-0.027 0.103-0.041 0.205-0.040 0.308 0.001 0.182 0.034 0.316 0.099 0.402 0.062 0.084 0.142 0.126 0.239 0.125 0.077-0.001 0.137-0.024 0.18-0.070 0.043-0.049 0.077-0.112 0.102-0.189 0.022-0.080 0.041-0.165 0.056-0.258 0.015-0.095 0.033-0.188 0.055-0.281 0.020-0.095 0.049-0.181 0.086-0.258 0.035-0.080 0.087-0.143 0.156-0.189 0.066-0.049 0.154-0.074 0.264-0.075 0.118-0.001 0.22 0.032 0.308 0.097 0.085 0.063 0.152 0.158 0.202 0.283 0.047 0.123 0.071 0.272 0.073 0.449z">
            </path>
            <path
                d="M1.802 13.611c0.027-0.162 0.082-0.298 0.166-0.408 0.081-0.114 0.191-0.194 0.328-0.241 0.138-0.050 0.303-0.058 0.495-0.027l1.155 0.193-0.045 0.269-1.129-0.188c-0.21-0.035-0.376-0.008-0.5 0.080-0.126 0.085-0.205 0.223-0.236 0.412-0.024 0.141-0.015 0.27 0.025 0.386 0.038 0.113 0.107 0.207 0.206 0.283 0.097 0.073 0.221 0.122 0.372 0.148l1.045 0.174-0.045 0.269-2.811-0.468 0.045-0.269 1.367 0.228-0.111 0.036c-0.133-0.087-0.229-0.207-0.286-0.359-0.060-0.153-0.074-0.325-0.042-0.517z">
            </path>
            <path
                d="M4.423 11.727c-0.069 0.182-0.172 0.33-0.309 0.445-0.138 0.112-0.295 0.182-0.471 0.212-0.178 0.028-0.36 0.007-0.547-0.064-0.189-0.072-0.34-0.177-0.451-0.315s-0.181-0.295-0.208-0.469c-0.027-0.174-0.005-0.354 0.065-0.538 0.071-0.187 0.174-0.336 0.31-0.449 0.137-0.115 0.293-0.186 0.467-0.213 0.175-0.029 0.358-0.008 0.547 0.064 0.187 0.071 0.337 0.176 0.451 0.315 0.113 0.136 0.183 0.293 0.212 0.47 0.026 0.177 0.004 0.357-0.066 0.542zM4.197 11.642c0.052-0.136 0.068-0.269 0.048-0.397-0.022-0.129-0.077-0.244-0.164-0.346-0.089-0.105-0.206-0.185-0.352-0.24-0.148-0.056-0.289-0.074-0.423-0.054-0.133 0.018-0.249 0.068-0.349 0.151-0.102 0.082-0.179 0.19-0.23 0.324s-0.065 0.265-0.043 0.394c0.020 0.128 0.073 0.244 0.159 0.348s0.204 0.184 0.352 0.24c0.146 0.055 0.287 0.073 0.423 0.054 0.134-0.020 0.252-0.072 0.354-0.153 0.1-0.083 0.175-0.19 0.225-0.321z">
            </path>
            <path
                d="M5.538 9.47c-0.092 0.148-0.21 0.26-0.352 0.337-0.144 0.076-0.303 0.11-0.476 0.101-0.174-0.012-0.354-0.076-0.541-0.193s-0.322-0.25-0.407-0.399c-0.087-0.151-0.126-0.307-0.119-0.468s0.058-0.317 0.152-0.467c0.102-0.163 0.23-0.285 0.384-0.367 0.153-0.085 0.319-0.124 0.498-0.114 0.176 0.008 0.35 0.065 0.522 0.172 0.174 0.109 0.302 0.241 0.386 0.396s0.122 0.321 0.114 0.497c-0.006 0.174-0.061 0.343-0.163 0.505zM5.6 10.737l-2.341-1.464 0.139-0.221 0.514 0.322 0.328 0.237 0.365 0.183 1.139 0.713-0.145 0.231zM5.322 9.358c0.076-0.121 0.117-0.247 0.122-0.376 0.003-0.131-0.027-0.256-0.092-0.374-0.067-0.12-0.166-0.222-0.299-0.304s-0.266-0.127-0.401-0.133c-0.135-0.006-0.261 0.021-0.377 0.081s-0.212 0.151-0.289 0.272c-0.076 0.121-0.117 0.249-0.121 0.382-0.003 0.131 0.027 0.256 0.092 0.374 0.066 0.117 0.165 0.216 0.297 0.299s0.267 0.129 0.403 0.139c0.135 0.006 0.261-0.021 0.377-0.081 0.115-0.064 0.211-0.156 0.287-0.278z">
            </path>
            <path
                d="M6.393 5.304c0.122-0.109 0.25-0.181 0.384-0.215 0.134-0.038 0.27-0.032 0.407 0.017 0.139 0.047 0.273 0.144 0.403 0.288l0.782 0.872-0.203 0.182-0.764-0.852c-0.142-0.158-0.289-0.241-0.441-0.25-0.152-0.012-0.299 0.046-0.442 0.174-0.107 0.096-0.181 0.201-0.221 0.317-0.041 0.112-0.046 0.229-0.016 0.35 0.030 0.118 0.096 0.234 0.199 0.348l0.708 0.789-0.203 0.182-1.346-1.5 0.195-0.174 0.369 0.412-0.101-0.049c-0.050-0.151-0.050-0.304 0.001-0.459 0.048-0.157 0.145-0.3 0.29-0.43z">
            </path>
            <path
                d="M9.593 5.478c-0.167 0.099-0.34 0.152-0.519 0.157-0.178 0.002-0.345-0.041-0.5-0.127-0.157-0.088-0.287-0.218-0.389-0.39-0.104-0.174-0.156-0.349-0.158-0.527s0.041-0.343 0.129-0.497c0.087-0.153 0.216-0.28 0.385-0.381 0.172-0.102 0.346-0.155 0.522-0.159 0.179-0.005 0.345 0.036 0.498 0.123 0.156 0.086 0.285 0.216 0.389 0.39 0.102 0.172 0.155 0.347 0.158 0.527 0.004 0.176-0.038 0.343-0.127 0.5-0.090 0.155-0.219 0.282-0.389 0.383zM9.469 5.27c0.125-0.075 0.22-0.168 0.284-0.281 0.063-0.115 0.091-0.239 0.086-0.373-0.004-0.137-0.047-0.273-0.127-0.407-0.081-0.136-0.181-0.238-0.298-0.305-0.115-0.068-0.238-0.101-0.367-0.099-0.131 0-0.258 0.037-0.381 0.111s-0.216 0.167-0.279 0.282c-0.064 0.113-0.095 0.236-0.091 0.372s0.045 0.271 0.127 0.407c0.080 0.134 0.179 0.236 0.298 0.305 0.117 0.067 0.242 0.1 0.373 0.1 0.13-0.003 0.255-0.040 0.376-0.112z">
            </path>
            <path
                d="M11.223 4.586l-1.352-1.678 0.248-0.081 1.241 1.561-0.113 0.037 0.090-1.998 0.223-0.073 1.252 1.557-0.113 0.037 0.083-1.996 0.237-0.078-0.096 2.153-0.244 0.080-1.192-1.46 0.077-0.025-0.096 1.883-0.244 0.080z">
            </path>
            <path
                d="M15.393 3.708c-0.166 0.007-0.325-0.009-0.475-0.049-0.15-0.042-0.269-0.097-0.357-0.166l0.114-0.22c0.084 0.058 0.192 0.107 0.321 0.148 0.13 0.038 0.265 0.054 0.406 0.048 0.192-0.008 0.329-0.043 0.411-0.106 0.082-0.065 0.121-0.147 0.116-0.247-0.003-0.074-0.030-0.131-0.080-0.17-0.048-0.042-0.111-0.071-0.188-0.088-0.078-0.020-0.164-0.035-0.259-0.047s-0.191-0.025-0.286-0.042c-0.093-0.017-0.179-0.042-0.257-0.078-0.078-0.038-0.143-0.090-0.195-0.157-0.049-0.067-0.076-0.158-0.081-0.273-0.005-0.11 0.022-0.21 0.079-0.299s0.144-0.161 0.26-0.215c0.118-0.056 0.263-0.088 0.434-0.095 0.13-0.006 0.262 0.007 0.394 0.037 0.132 0.028 0.241 0.068 0.328 0.121l-0.11 0.224c-0.092-0.058-0.19-0.097-0.293-0.118-0.104-0.024-0.206-0.034-0.309-0.029-0.182 0.008-0.315 0.045-0.399 0.113-0.082 0.065-0.121 0.146-0.117 0.243 0.003 0.077 0.029 0.136 0.077 0.177 0.050 0.041 0.115 0.073 0.192 0.096 0.080 0.020 0.167 0.035 0.259 0.047 0.095 0.011 0.189 0.027 0.283 0.046 0.095 0.016 0.182 0.042 0.261 0.077 0.081 0.032 0.146 0.082 0.195 0.149 0.051 0.064 0.079 0.152 0.084 0.262 0.005 0.118-0.024 0.221-0.087 0.311-0.060 0.087-0.152 0.158-0.275 0.212-0.121 0.051-0.269 0.081-0.446 0.088z">
            </path>
            <path
                d="M17.879 1.762c0.162 0.021 0.3 0.072 0.414 0.151 0.116 0.077 0.2 0.184 0.252 0.32 0.054 0.136 0.069 0.301 0.043 0.494l-0.153 1.161-0.27-0.036 0.15-1.135c0.028-0.211-0.005-0.376-0.097-0.497-0.090-0.123-0.23-0.197-0.42-0.222-0.142-0.019-0.27-0.006-0.385 0.038-0.111 0.042-0.204 0.114-0.276 0.215-0.070 0.099-0.115 0.225-0.135 0.377l-0.139 1.051-0.27-0.036 0.373-2.825 0.27 0.036-0.181 1.374-0.040-0.11c0.083-0.136 0.199-0.236 0.349-0.299 0.151-0.065 0.322-0.085 0.515-0.060z">
            </path>
            <path
                d="M19.892 4.322c-0.184-0.063-0.336-0.161-0.456-0.293-0.116-0.134-0.192-0.289-0.227-0.463-0.034-0.177-0.019-0.36 0.045-0.548 0.065-0.191 0.165-0.345 0.3-0.462s0.288-0.191 0.462-0.224c0.174-0.033 0.354-0.017 0.54 0.046 0.189 0.064 0.342 0.163 0.459 0.295 0.12 0.133 0.196 0.286 0.229 0.459 0.035 0.174 0.020 0.357-0.045 0.548-0.065 0.189-0.164 0.343-0.3 0.462-0.132 0.117-0.286 0.193-0.463 0.227-0.176 0.032-0.357 0.016-0.544-0.047zM19.97 4.093c0.138 0.047 0.271 0.059 0.398 0.034 0.128-0.027 0.241-0.085 0.34-0.176 0.102-0.092 0.178-0.212 0.229-0.36 0.051-0.15 0.064-0.292 0.040-0.425-0.023-0.132-0.077-0.247-0.163-0.344-0.085-0.099-0.195-0.172-0.331-0.218s-0.268-0.056-0.396-0.029c-0.127 0.024-0.241 0.081-0.343 0.171s-0.177 0.21-0.229 0.36c-0.050 0.148-0.064 0.289-0.040 0.425 0.025 0.133 0.080 0.249 0.165 0.348 0.086 0.097 0.196 0.168 0.329 0.214z">
            </path>
            <path
                d="M22.13 5.325c-0.151-0.087-0.268-0.2-0.35-0.339-0.081-0.141-0.121-0.298-0.118-0.471 0.006-0.174 0.064-0.356 0.173-0.547s0.238-0.331 0.385-0.421c0.148-0.092 0.302-0.138 0.464-0.136s0.319 0.046 0.472 0.134c0.166 0.096 0.293 0.219 0.381 0.37 0.091 0.15 0.135 0.314 0.132 0.493-0.001 0.176-0.052 0.352-0.153 0.528-0.102 0.177-0.229 0.311-0.382 0.401s-0.316 0.134-0.493 0.133c-0.174 0-0.345-0.048-0.511-0.144zM20.866 5.435l1.379-2.392 0.226 0.13-0.303 0.526-0.225 0.336-0.17 0.372-0.671 1.164-0.236-0.136zM22.234 5.106c0.124 0.072 0.251 0.108 0.381 0.108 0.131-0.002 0.255-0.037 0.371-0.105 0.118-0.071 0.216-0.174 0.294-0.309s0.118-0.271 0.119-0.406-0.030-0.26-0.095-0.374c-0.064-0.114-0.159-0.207-0.283-0.278s-0.253-0.107-0.386-0.107c-0.131 0.002-0.255 0.037-0.371 0.105-0.114 0.070-0.211 0.173-0.288 0.308s-0.119 0.271-0.124 0.407c-0.001 0.135 0.030 0.26 0.095 0.374 0.068 0.113 0.164 0.205 0.288 0.277z">
            </path>
            <path
                d="M26.349 6.035c0.114 0.118 0.19 0.243 0.23 0.376 0.043 0.133 0.042 0.269-0.002 0.407-0.042 0.14-0.134 0.278-0.274 0.413l-0.844 0.813-0.189-0.196 0.824-0.794c0.153-0.147 0.231-0.297 0.234-0.449 0.006-0.152-0.057-0.297-0.191-0.435-0.1-0.103-0.208-0.173-0.325-0.21-0.113-0.036-0.23-0.038-0.351-0.004-0.116 0.034-0.23 0.104-0.341 0.211l-0.763 0.735-0.189-0.196 1.452-1.399 0.181 0.188-0.398 0.384 0.045-0.102c0.15-0.055 0.303-0.061 0.46-0.016 0.159 0.043 0.305 0.134 0.441 0.274z">
            </path>
            <path
                d="M26.339 9.304c-0.105-0.164-0.163-0.335-0.174-0.513-0.007-0.178 0.029-0.346 0.11-0.504 0.083-0.16 0.209-0.293 0.377-0.401 0.17-0.109 0.344-0.167 0.522-0.175s0.345 0.030 0.501 0.112c0.156 0.082 0.288 0.206 0.394 0.372 0.108 0.168 0.167 0.34 0.176 0.516 0.011 0.178-0.025 0.346-0.107 0.502-0.081 0.158-0.206 0.292-0.377 0.401-0.168 0.108-0.342 0.166-0.522 0.175-0.176 0.010-0.344-0.027-0.504-0.11-0.158-0.084-0.29-0.21-0.396-0.376zM26.543 9.174c0.079 0.123 0.176 0.214 0.29 0.275 0.117 0.059 0.242 0.083 0.376 0.074 0.137-0.009 0.272-0.056 0.403-0.14 0.134-0.086 0.232-0.188 0.295-0.308 0.065-0.117 0.093-0.241 0.086-0.37-0.005-0.131-0.046-0.256-0.123-0.377s-0.175-0.21-0.292-0.269c-0.115-0.060-0.24-0.087-0.375-0.079s-0.269 0.054-0.403 0.14c-0.132 0.084-0.23 0.187-0.295 0.308-0.063 0.12-0.092 0.245-0.088 0.375 0.007 0.129 0.049 0.253 0.125 0.372z">
            </path>
            <path
                d="M27.278 10.903l1.631-1.407 0.090 0.245-1.518 1.292-0.041-0.112 2.001 0.024 0.081 0.22-1.514 1.303-0.041-0.112 1.998 0.016 0.086 0.234-2.156-0.024-0.089-0.242 1.419-1.239 0.028 0.076-1.886-0.033-0.089-0.242z">
            </path>
        </symbol>
        <symbol id="icon-Burger" viewBox="0 0 32 32">
            <path d="M4 5.333h24v2.667h-24v-2.667zM12 14.667h16v2.667h-16v-2.667zM4 24h24v2.667h-24v-2.667z"></path>
        </symbol>
        <symbol id="icon-facebook" viewBox="0 0 32 32">
            <path stroke-linejoin="round" stroke-linecap="round" stroke-miterlimit="4" stroke-width="2.2857"
                d="M24 2.667h-4c-1.768 0-3.464 0.702-4.714 1.953s-1.953 2.946-1.953 4.714v4h-4v5.333h4v10.667h5.333v-10.667h4l1.333-5.333h-5.333v-4c0-0.354 0.14-0.693 0.39-0.943s0.589-0.391 0.943-0.391h4v-5.333z">
            </path>
        </symbol>
        <symbol id="icon-instagram" viewBox="0 0 32 32">
            <path stroke-linejoin="round" stroke-linecap="round" stroke-miterlimit="4" stroke-width="2.2857"
                d="M22.666 2.667h-13.333c-3.682 0-6.667 2.985-6.667 6.667v13.333c0 3.682 2.985 6.667 6.667 6.667h13.333c3.682 0 6.667-2.985 6.667-6.667v-13.333c0-3.682-2.985-6.667-6.667-6.667z">
            </path>
            <path stroke-linejoin="round" stroke-linecap="round" stroke-miterlimit="4" stroke-width="2.2857"
                d="M21.333 15.16c0.164 1.11-0.025 2.243-0.542 3.239s-1.334 1.803-2.336 2.308c-1.002 0.504-2.137 0.68-3.245 0.502s-2.131-0.701-2.924-1.494c-0.793-0.793-1.316-1.816-1.494-2.924s-0.003-2.243 0.502-3.245c0.504-1.002 1.312-1.82 2.307-2.336s2.129-0.706 3.239-0.542c1.132 0.168 2.18 0.695 2.989 1.504s1.337 1.857 1.504 2.989z">
            </path>
            <path stroke-linejoin="round" stroke-linecap="round" stroke-miterlimit="4" stroke-width="2.2857"
                d="M23.334 8.667h0.013"></path>
        </symbol>
        <symbol id="icon-logo" viewBox="0 0 39 32">
            <path
                d="M16.407 27.636v-4.499l-0.116-0.737v-7.525c0-1.732-0.491-3.064-1.474-3.995-0.957-0.931-2.392-1.396-4.305-1.396-1.319 0-2.573 0.22-3.762 0.659s-2.198 1.021-3.025 1.745l-1.241-2.056c1.034-0.879 2.276-1.552 3.724-2.017 1.448-0.491 2.974-0.737 4.577-0.737 2.638 0 4.668 0.659 6.090 1.978 1.448 1.293 2.172 3.271 2.172 5.935v12.645h-2.638zM9.387 27.83c-1.526 0-2.857-0.246-3.995-0.737-1.112-0.517-1.965-1.215-2.56-2.095-0.595-0.905-0.892-1.939-0.892-3.103 0-1.060 0.246-2.017 0.737-2.87 0.517-0.879 1.345-1.577 2.482-2.095 1.164-0.543 2.715-0.815 4.655-0.815h7.021v2.056h-6.943c-1.965 0-3.336 0.349-4.112 1.047-0.75 0.698-1.125 1.564-1.125 2.599 0 1.164 0.452 2.095 1.358 2.793s2.172 1.047 3.801 1.047c1.552 0 2.883-0.349 3.995-1.047 1.138-0.724 1.965-1.758 2.482-3.103l0.621 1.901c-0.517 1.345-1.422 2.418-2.715 3.219-1.267 0.802-2.87 1.202-4.81 1.202z">
            </path>
            <path
                d="M27.811 27.83c-2.12 0-3.982-0.44-5.585-1.319-1.603-0.905-2.857-2.133-3.762-3.685-0.905-1.577-1.358-3.375-1.358-5.392s0.427-3.801 1.28-5.353c0.879-1.552 2.069-2.767 3.569-3.646 1.526-0.905 3.232-1.358 5.12-1.358 1.914 0 3.607 0.44 5.081 1.319 1.5 0.853 2.676 2.069 3.53 3.646 0.853 1.552 1.28 3.349 1.28 5.392 0 0.129-0.013 0.271-0.039 0.427 0 0.129 0 0.271 0 0.427h-17.726v-2.056h16.252l-1.086 0.815c0-1.474-0.323-2.78-0.97-3.918-0.621-1.164-1.474-2.069-2.56-2.715s-2.34-0.97-3.762-0.97c-1.396 0-2.651 0.323-3.762 0.97s-1.978 1.552-2.599 2.715c-0.621 1.164-0.931 2.495-0.931 3.995v0.427c0 1.552 0.336 2.922 1.009 4.111 0.698 1.164 1.655 2.082 2.87 2.754 1.241 0.646 2.651 0.97 4.228 0.97 1.241 0 2.392-0.22 3.452-0.659 1.086-0.44 2.017-1.112 2.793-2.017l1.551 1.784c-0.905 1.086-2.043 1.914-3.413 2.482-1.345 0.569-2.831 0.853-4.461 0.853z">
            </path>
            <path d="M34.715 2.909h-13.576v-2.909h13.576v2.909z"></path>
        </symbol>
        <symbol id="icon-tel" viewBox="0 0 32 32">
            <path
                d="M29.387 5.978l-3.905-3.901c-0.477-0.477-1.115-0.744-1.789-0.744s-1.313 0.264-1.789 0.744l-4.206 4.198c-0.477 0.477-0.744 1.118-0.744 1.793 0 0.678 0.264 1.313 0.744 1.793l3.285 3.289c-0.748 1.744-1.824 3.328-3.168 4.667-1.346 1.353-2.919 2.42-4.664 3.175l-3.285-3.289c-0.477-0.477-1.115-0.744-1.789-0.744-0.333-0.001-0.662 0.064-0.97 0.192s-0.586 0.316-0.82 0.552l-4.209 4.198c-0.477 0.477-0.744 1.118-0.744 1.793 0 0.678 0.264 1.312 0.744 1.793l3.901 3.901c0.814 0.814 1.936 1.279 3.087 1.279 0.238 0 0.469-0.018 0.704-0.059 4.855-0.799 9.673-3.384 13.563-7.27 3.887-3.893 6.468-8.711 7.275-13.569 0.231-1.379-0.231-2.797-1.221-3.791zM28.008 9.333c-0.715 4.322-3.040 8.634-6.541 12.135s-7.81 5.826-12.133 6.541c-0.543 0.092-1.1-0.092-1.496-0.484l-3.832-3.831 4.063-4.066 4.426 4.432 0.792-0.293c2.401-0.883 4.582-2.277 6.391-4.086s3.203-3.99 4.085-6.392l0.293-0.792-4.429-4.425 4.063-4.066 3.832 3.831c0.396 0.396 0.579 0.953 0.488 1.496z">
            </path>
        </symbol>
        <symbol id="icon-x" viewBox="0 0 32 32">
            <path stroke-linejoin="round" stroke-linecap="round" stroke-miterlimit="4" stroke-width="2.6667"
                d="M24 8l-16 16"></path>
            <path stroke-linejoin="round" stroke-linecap="round" stroke-miterlimit="4" stroke-width="2.6667"
                d="M8 8l16 16"></path>
        </symbol>
        <symbol id="close-icon" viewBox="0 0 32 32">
            <path stroke="#fff" style="stroke: var(--color1, #fff)" stroke-linejoin="round" stroke-linecap="round"
                stroke-miterlimit="4" stroke-width="2.6667" d="M24 8l-16 16"></path>
            <path stroke="#fff" style="stroke: var(--color1, #fff)" stroke-linejoin="round" stroke-linecap="round"
                stroke-miterlimit="4" stroke-width="2.6667" d="M8 8l16 16"></path>
        </symbol>
        <symbol id="icon-instagram-footer" viewBox="0 0 32 32">
            <path
                d="M16 2.881c4.275 0 4.781 0.019 6.462 0.094 1.563 0.069 2.406 0.331 2.969 0.55 0.744 0.288 1.281 0.638 1.837 1.194 0.563 0.563 0.906 1.094 1.2 1.838 0.219 0.563 0.481 1.412 0.55 2.969 0.075 1.688 0.094 2.194 0.094 6.463s-0.019 4.781-0.094 6.463c-0.069 1.563-0.331 2.406-0.55 2.969-0.288 0.744-0.637 1.281-1.194 1.837-0.563 0.563-1.094 0.906-1.837 1.2-0.563 0.219-1.413 0.481-2.969 0.55-1.688 0.075-2.194 0.094-6.463 0.094s-4.781-0.019-6.463-0.094c-1.563-0.069-2.406-0.331-2.969-0.55-0.744-0.288-1.281-0.637-1.838-1.194-0.563-0.563-0.906-1.094-1.2-1.837-0.219-0.563-0.481-1.413-0.55-2.969-0.075-1.688-0.094-2.194-0.094-6.463s0.019-4.781 0.094-6.463c0.069-1.563 0.331-2.406 0.55-2.969 0.288-0.744 0.638-1.281 1.194-1.838 0.563-0.563 1.094-0.906 1.838-1.2 0.563-0.219 1.412-0.481 2.969-0.55 1.681-0.075 2.188-0.094 6.463-0.094zM16 0c-4.344 0-4.887 0.019-6.594 0.094-1.7 0.075-2.869 0.35-3.881 0.744-1.056 0.412-1.95 0.956-2.837 1.85-0.894 0.888-1.438 1.781-1.85 2.831-0.394 1.019-0.669 2.181-0.744 3.881-0.075 1.713-0.094 2.256-0.094 6.6s0.019 4.887 0.094 6.594c0.075 1.7 0.35 2.869 0.744 3.881 0.413 1.056 0.956 1.95 1.85 2.837 0.887 0.887 1.781 1.438 2.831 1.844 1.019 0.394 2.181 0.669 3.881 0.744 1.706 0.075 2.25 0.094 6.594 0.094s4.888-0.019 6.594-0.094c1.7-0.075 2.869-0.35 3.881-0.744 1.050-0.406 1.944-0.956 2.831-1.844s1.438-1.781 1.844-2.831c0.394-1.019 0.669-2.181 0.744-3.881 0.075-1.706 0.094-2.25 0.094-6.594s-0.019-4.887-0.094-6.594c-0.075-1.7-0.35-2.869-0.744-3.881-0.394-1.063-0.938-1.956-1.831-2.844-0.887-0.887-1.781-1.438-2.831-1.844-1.019-0.394-2.181-0.669-3.881-0.744-1.712-0.081-2.256-0.1-6.6-0.1v0z">
            </path>
            <path
                d="M16 7.781c-4.537 0-8.219 3.681-8.219 8.219s3.681 8.219 8.219 8.219 8.219-3.681 8.219-8.219c0-4.537-3.681-8.219-8.219-8.219zM16 21.331c-2.944 0-5.331-2.387-5.331-5.331s2.387-5.331 5.331-5.331c2.944 0 5.331 2.387 5.331 5.331s-2.387 5.331-5.331 5.331z">
            </path>
            <path
                d="M26.462 7.456c0 1.060-0.859 1.919-1.919 1.919s-1.919-0.859-1.919-1.919c0-1.060 0.859-1.919 1.919-1.919s1.919 0.859 1.919 1.919z">
            </path>
        </symbol>
        <symbol id="icon-checkmark" viewBox="0 0 32 32">
            <path d="M27 4l-15 15-7-7-5 5 12 12 20-20z"></path>
        </symbol>
        <symbol id="icon-close" viewBox="0 0 32 32">
            <path
                d="M26.021 3.634c-0.308 0.153-0.816 0.642-5.182 4.999l-4.841 4.832-4.679-4.679c-2.574-2.574-4.704-4.679-4.732-4.679-0.069 0-2.48 2.411-2.48 2.48 0 0.030 2.105 2.158 4.679 4.732l4.679 4.679-4.855 4.868c-3.813 3.824-4.882 4.924-4.985 5.134-0.105 0.212-0.132 0.35-0.132 0.667 0 0.507 0.133 0.786 0.594 1.246 0.398 0.398 0.741 0.581 1.147 0.61 0.037 0.003 0.079 0.005 0.123 0.005 0.313 0 0.602-0.104 0.834-0.278l-0.004 0.003c0.132-0.089 2.395-2.311 5.028-4.939l4.786-4.78 9.387 9.387 1.266-1.268 1.268-1.266-9.387-9.387 4.78-4.786c2.628-2.633 4.85-4.896 4.939-5.028 0.172-0.229 0.276-0.517 0.276-0.83 0-0.043-0.002-0.086-0.006-0.128l0 0.005c-0.028-0.402-0.208-0.743-0.596-1.129-0.645-0.645-1.246-0.795-1.906-0.471z">
            </path>
        </symbol>
        <symbol id="icon-invalid" viewBox="0 0 32 32">
            <path fill="#e74a3b" style="fill: var(--color1, #e74a3b)"
                d="M0 16c0-8.838 7.162-16 16-16s16 7.162 16 16c0 8.837-7.163 16-16 16s-16-7.163-16-16zM10.938 13.006l2.944 2.938-2.944 2.994c-0.581 0.588-0.581 1.538 0 2.069 0.588 0.637 1.537 0.637 2.069 0l2.938-2.888 2.994 2.888c0.588 0.637 1.538 0.637 2.069 0 0.637-0.531 0.637-1.481 0-2.069l-2.888-2.994 2.888-2.938c0.637-0.531 0.637-1.481 0-2.069-0.531-0.581-1.481-0.581-2.069 0l-2.994 2.944-2.938-2.944c-0.531-0.581-1.481-0.581-2.069 0-0.581 0.588-0.581 1.537 0 2.069z">
            </path>
        </symbol>
        <symbol id="icon-valid" viewBox="0 0 32 32">
            <path fill="#3cbc81" style="fill: var(--color2, #3cbc81)"
                d="M0 16c0-8.838 7.162-16 16-16s16 7.162 16 16c0 8.837-7.163 16-16 16s-16-7.163-16-16zM23.237 13.238c0.681-0.681 0.681-1.794 0-2.475s-1.794-0.681-2.475 0l-6.763 6.762-2.763-2.762c-0.681-0.681-1.794-0.681-2.475 0s-0.681 1.794 0 2.475l4 4c0.681 0.681 1.794 0.681 2.475 0l8-8z">
            </path>
        </symbol>
        <symbol id="icon-arrow-up" viewBox="0 0 32 32">
            <path
                d="M13.472 28.449v2.992c0 0.194-0.157 0.351-0.351 0.351s-0.351-0.157-0.351-0.351v-2.992c0-0.194 0.157-0.351 0.351-0.351s0.351 0.157 0.351 0.351z">
            </path>
            <path
                d="M27.284 11.464c0 0.212-0.080 0.424-0.242 0.585l-3.367 3.367c-0.323 0.322-0.848 0.322-1.17 0l-3.318-3.318v9.444c0 0.194-0.157 0.351-0.351 0.351s-0.351-0.157-0.351-0.351v-10.292c0-0.142 0.085-0.27 0.217-0.325s0.282-0.024 0.383 0.076l3.918 3.918c0.049 0.049 0.128 0.049 0.177-0l3.367-3.367c0.049-0.049 0.049-0.128 0-0.177l-10.461-10.46c-0.029-0.029-0.067-0.035-0.093-0.034-0.053-0.001-0.090 0.004-0.12 0.034l-10.461 10.46c-0.063 0.064-0.065 0.113 0 0.177l3.367 3.367c0.049 0.049 0.128 0.049 0.177 0l3.918-3.918c0.1-0.1 0.252-0.131 0.383-0.076s0.217 0.183 0.217 0.325v14.1c0 0.194-0.157 0.351-0.351 0.351s-0.351-0.157-0.351-0.351v-13.252l-3.318 3.318c-0.323 0.322-0.848 0.322-1.17 0l-3.367-3.367c-0.313-0.313-0.313-0.858 0-1.17l10.46-10.46c0.163-0.163 0.382-0.248 0.616-0.239 0.208-0.009 0.427 0.076 0.59 0.239l10.461 10.46c0.162 0.161 0.243 0.373 0.243 0.585z">
            </path>
            <path
                d="M19.187 24.464v2.914c0 0.194-0.157 0.351-0.351 0.351s-0.351-0.157-0.351-0.351v-2.914c0-0.194 0.157-0.351 0.351-0.351s0.351 0.157 0.351 0.351z">
            </path>
            <path
                d="M16.329 17.203v12.022c0 0.194-0.157 0.351-0.351 0.351s-0.351-0.157-0.351-0.351v-12.022c0-0.194 0.157-0.351 0.351-0.351s0.351 0.157 0.351 0.351z">
            </path>
        </symbol>
        <!-- Hero svg [НЕ ЧІПАТИ] -->
        <symbol id="btn-txt" viewBox="0 0 32 32">
            <path
                d="M15.192 3.749c-0.157 0.010-0.301-0.017-0.433-0.081-0.111-0.056-0.205-0.134-0.282-0.236l0.063 1.015-0.246 0.015-0.154-2.49 0.236-0.015 0.022 0.357c0.064-0.119 0.149-0.214 0.257-0.284 0.123-0.079 0.264-0.124 0.423-0.134 0.173-0.011 0.33 0.019 0.471 0.089 0.143 0.068 0.258 0.169 0.346 0.305 0.087 0.134 0.136 0.292 0.148 0.474 0.011 0.185-0.018 0.349-0.088 0.492s-0.172 0.259-0.305 0.346c-0.131 0.087-0.284 0.136-0.457 0.146zM15.161 3.532c0.129-0.008 0.243-0.044 0.341-0.108 0.098-0.066 0.174-0.154 0.227-0.264 0.053-0.112 0.076-0.239 0.067-0.38s-0.046-0.263-0.113-0.365c-0.067-0.103-0.153-0.181-0.258-0.234s-0.223-0.077-0.352-0.069c-0.129 0.008-0.244 0.045-0.344 0.112-0.098 0.066-0.174 0.154-0.227 0.264-0.051 0.11-0.072 0.235-0.064 0.376s0.045 0.264 0.11 0.369c0.067 0.103 0.153 0.181 0.258 0.234 0.107 0.051 0.226 0.073 0.355 0.065z">
            </path>
            <path
                d="M12.461 4.088c0.155 0.044 0.319 0.045 0.49 0.004 0.173-0.041 0.319-0.117 0.438-0.226 0.118-0.111 0.2-0.244 0.244-0.397 0.046-0.156 0.048-0.322 0.006-0.497-0.042-0.178-0.119-0.325-0.23-0.441-0.109-0.117-0.241-0.197-0.396-0.241-0.153-0.044-0.318-0.046-0.493-0.004-0.173 0.041-0.318 0.116-0.435 0.225s-0.198 0.24-0.245 0.394c-0.047 0.154-0.049 0.32-0.006 0.497 0.042 0.175 0.119 0.322 0.23 0.441 0.111 0.116 0.243 0.198 0.397 0.244zM13.221 3.714c-0.086 0.080-0.193 0.135-0.321 0.166-0.124 0.030-0.242 0.028-0.354-0.005-0.113-0.035-0.211-0.097-0.294-0.187-0.084-0.092-0.142-0.206-0.175-0.344-0.033-0.139-0.033-0.268 0.001-0.385s0.094-0.216 0.179-0.296c0.085-0.082 0.191-0.138 0.317-0.168s0.245-0.028 0.358 0.007c0.112 0.033 0.209 0.094 0.29 0.184 0.083 0.090 0.141 0.204 0.175 0.344 0.033 0.137 0.033 0.266-0.001 0.385-0.032 0.117-0.090 0.216-0.175 0.299z">
            </path>
            <path
                d="M10.256 3.046c0.136-0.059 0.266-0.083 0.391-0.074 0.126 0.006 0.241 0.050 0.344 0.131 0.105 0.080 0.193 0.201 0.263 0.363l0.42 0.972-0.226 0.098-0.41-0.949c-0.076-0.176-0.178-0.29-0.306-0.34-0.127-0.054-0.269-0.046-0.429 0.023-0.119 0.051-0.212 0.121-0.281 0.208-0.067 0.084-0.105 0.183-0.114 0.295-0.008 0.109 0.015 0.228 0.070 0.355l0.38 0.879-0.226 0.098-1.021-2.364 0.226-0.098 0.423 0.98c0.017-0.104 0.058-0.201 0.124-0.29 0.087-0.121 0.21-0.216 0.372-0.285z">
            </path>
            <path
                d="M8.793 5.882c0.136-0.036 0.267-0.095 0.394-0.175 0.135-0.085 0.238-0.175 0.31-0.269 0.072-0.098 0.113-0.194 0.121-0.29 0.009-0.099-0.015-0.193-0.072-0.283-0.053-0.084-0.114-0.14-0.184-0.167-0.069-0.031-0.142-0.040-0.22-0.030-0.077 0.008-0.157 0.027-0.239 0.057-0.082 0.027-0.162 0.057-0.242 0.091-0.078 0.033-0.153 0.059-0.224 0.080-0.071 0.017-0.136 0.021-0.194 0.012-0.056-0.011-0.103-0.046-0.14-0.105-0.047-0.074-0.053-0.155-0.018-0.243 0.036-0.091 0.123-0.18 0.262-0.268 0.078-0.049 0.163-0.088 0.255-0.116 0.091-0.030 0.185-0.043 0.283-0.039l-0.015-0.225c-0.092-0.002-0.195 0.015-0.311 0.053-0.117 0.036-0.225 0.085-0.325 0.148-0.131 0.083-0.23 0.173-0.297 0.27-0.067 0.094-0.102 0.189-0.107 0.285s0.019 0.186 0.072 0.27c0.056 0.088 0.118 0.147 0.186 0.178 0.070 0.029 0.145 0.041 0.223 0.035 0.077-0.008 0.156-0.026 0.236-0.055 0.082-0.030 0.163-0.062 0.243-0.096s0.155-0.061 0.224-0.080c0.069-0.021 0.131-0.027 0.187-0.016 0.057 0.008 0.103 0.040 0.139 0.097 0.048 0.076 0.055 0.158 0.020 0.246-0.036 0.086-0.128 0.175-0.274 0.267-0.108 0.068-0.221 0.116-0.34 0.145-0.12 0.027-0.226 0.036-0.318 0.029l0.010 0.224c0.099 0.014 0.217 0.004 0.354-0.031z">
            </path>
            <path
                d="M6.277 8.194l-1.788-0.77 0.164-0.17 1.51 0.662-0.705-1.496 0.147-0.152 1.517 0.655-0.71-1.492 0.157-0.162 0.832 1.761-0.161 0.167-1.475-0.624 0.675 1.453-0.161 0.167z">
            </path>
            <path
                d="M4.945 9.927c0.143-0.076 0.262-0.188 0.357-0.335 0.097-0.15 0.15-0.305 0.161-0.466 0.009-0.162-0.024-0.314-0.098-0.456-0.075-0.145-0.188-0.266-0.339-0.364-0.153-0.099-0.31-0.153-0.471-0.16-0.159-0.009-0.31 0.024-0.453 0.1-0.141 0.074-0.261 0.187-0.359 0.338-0.097 0.15-0.15 0.304-0.159 0.463s0.022 0.311 0.095 0.454c0.073 0.143 0.186 0.265 0.339 0.364 0.152 0.098 0.309 0.151 0.471 0.16 0.161 0.007 0.312-0.025 0.456-0.098zM5.236 9.132c-0.007 0.117-0.046 0.231-0.117 0.341-0.069 0.107-0.156 0.187-0.259 0.241-0.106 0.053-0.22 0.076-0.342 0.068-0.124-0.009-0.245-0.051-0.364-0.128-0.12-0.078-0.209-0.171-0.266-0.279s-0.082-0.221-0.075-0.338c0.005-0.118 0.042-0.232 0.113-0.34s0.158-0.19 0.264-0.242c0.104-0.054 0.216-0.076 0.337-0.067 0.122 0.007 0.243 0.050 0.364 0.128 0.119 0.077 0.207 0.17 0.266 0.279 0.058 0.106 0.085 0.219 0.080 0.337z">
            </path>
            <path
                d="M2.613 10.728c0.058-0.136 0.135-0.244 0.231-0.324 0.095-0.083 0.208-0.13 0.339-0.143 0.132-0.015 0.279 0.012 0.441 0.081l0.975 0.412-0.096 0.227-0.952-0.403c-0.177-0.075-0.329-0.086-0.456-0.035-0.129 0.049-0.227 0.153-0.294 0.313-0.050 0.119-0.070 0.234-0.059 0.344 0.010 0.107 0.050 0.205 0.121 0.292 0.070 0.085 0.168 0.154 0.296 0.208l0.882 0.373-0.096 0.227-1.678-0.71 0.092-0.217 0.305 0.129c-0.067-0.091-0.108-0.194-0.123-0.312-0.021-0.147 0.003-0.301 0.072-0.463z">
            </path>
            <path
                d="M3.292 14.916c0.090-0.115 0.146-0.251 0.169-0.407 0.025-0.172 0.009-0.331-0.049-0.477-0.058-0.149-0.149-0.272-0.275-0.37s-0.28-0.16-0.463-0.187c-0.181-0.027-0.346-0.011-0.494 0.046-0.151 0.057-0.275 0.149-0.37 0.275-0.098 0.124-0.159 0.271-0.185 0.443-0.023 0.158-0.009 0.305 0.044 0.441 0.046 0.12 0.121 0.223 0.224 0.31l-0.354-0.052-0.034 0.233 2.468 0.363 0.036-0.244-1.006-0.148c0.116-0.055 0.212-0.131 0.29-0.227zM3.206 14.139c0.042 0.109 0.054 0.228 0.035 0.356s-0.065 0.24-0.137 0.334c-0.074 0.092-0.169 0.16-0.283 0.204-0.116 0.041-0.244 0.052-0.383 0.031s-0.258-0.067-0.355-0.14c-0.097-0.075-0.167-0.167-0.212-0.277-0.044-0.112-0.057-0.232-0.038-0.36s0.066-0.238 0.14-0.33c0.074-0.092 0.169-0.16 0.283-0.204s0.241-0.056 0.381-0.035c0.14 0.021 0.259 0.068 0.358 0.144 0.096 0.075 0.167 0.167 0.212 0.277z">
            </path>
            <path
                d="M3.326 16.821c0.005 0.176-0.030 0.335-0.105 0.478-0.077 0.141-0.184 0.254-0.321 0.338-0.139 0.085-0.299 0.13-0.479 0.134-0.183 0.005-0.344-0.031-0.485-0.108s-0.253-0.184-0.335-0.321c-0.082-0.137-0.126-0.294-0.131-0.472-0.005-0.18 0.030-0.341 0.105-0.482 0.075-0.143 0.181-0.256 0.317-0.338 0.137-0.085 0.296-0.13 0.479-0.134 0.18-0.005 0.342 0.031 0.485 0.108 0.141 0.075 0.254 0.182 0.338 0.321 0.082 0.139 0.126 0.297 0.131 0.476zM3.108 16.827c-0.004-0.132-0.036-0.248-0.096-0.348-0.063-0.1-0.148-0.178-0.256-0.233-0.11-0.057-0.236-0.084-0.377-0.080-0.143 0.004-0.267 0.037-0.372 0.1-0.105 0.061-0.185 0.143-0.24 0.246-0.057 0.103-0.084 0.22-0.081 0.349s0.037 0.244 0.1 0.344c0.061 0.1 0.145 0.179 0.253 0.236s0.234 0.084 0.377 0.080c0.141-0.004 0.265-0.037 0.372-0.1 0.105-0.063 0.186-0.146 0.243-0.25 0.055-0.103 0.081-0.219 0.077-0.346z">
            </path>
            <path
                d="M28.75 16.696c-0.049 0.132-0.078 0.272-0.087 0.422-0.009 0.159 0.004 0.296 0.039 0.409 0.037 0.116 0.092 0.205 0.165 0.267 0.075 0.065 0.166 0.1 0.272 0.106 0.099 0.006 0.18-0.012 0.243-0.052 0.065-0.038 0.115-0.092 0.152-0.162 0.039-0.067 0.070-0.143 0.093-0.227 0.025-0.082 0.048-0.165 0.067-0.25 0.019-0.082 0.040-0.159 0.065-0.229 0.027-0.068 0.062-0.123 0.104-0.164 0.042-0.039 0.097-0.057 0.166-0.053 0.088 0.005 0.157 0.047 0.208 0.127 0.053 0.082 0.075 0.205 0.066 0.369-0.005 0.092-0.024 0.184-0.054 0.275-0.029 0.091-0.073 0.175-0.133 0.253l0.191 0.119c0.055-0.073 0.101-0.168 0.138-0.284 0.039-0.116 0.062-0.233 0.069-0.351 0.009-0.155-0.007-0.288-0.046-0.399-0.038-0.109-0.094-0.193-0.169-0.253s-0.163-0.093-0.262-0.099c-0.104-0.006-0.188 0.010-0.253 0.048-0.065 0.040-0.118 0.094-0.159 0.161-0.039 0.067-0.070 0.142-0.093 0.224-0.024 0.084-0.045 0.169-0.063 0.254s-0.041 0.161-0.065 0.229c-0.023 0.068-0.055 0.122-0.096 0.161-0.039 0.042-0.093 0.061-0.16 0.057-0.090-0.005-0.161-0.048-0.212-0.127-0.049-0.079-0.068-0.206-0.058-0.379 0.008-0.127 0.034-0.247 0.080-0.36 0.048-0.113 0.102-0.205 0.162-0.276l-0.188-0.122c-0.069 0.072-0.129 0.174-0.181 0.306z">
            </path>
            <path
                d="M30.043 19.858c0.080-0.096 0.135-0.217 0.166-0.362 0.037-0.172 0.031-0.328-0.017-0.469-0.035-0.106-0.089-0.196-0.165-0.27l1.044 0.224 0.052-0.241-2.517-0.54-0.052 0.241 0.936 0.201c0.136 0.029 0.246 0.079 0.33 0.149 0.086 0.073 0.144 0.161 0.174 0.264 0.032 0.106 0.034 0.223 0.007 0.349-0.036 0.17-0.113 0.29-0.23 0.362-0.115 0.075-0.267 0.092-0.455 0.051l-1.011-0.217-0.052 0.241 1.035 0.222c0.172 0.037 0.321 0.036 0.448-0.003 0.126-0.037 0.228-0.105 0.306-0.204z">
            </path>
            <path
                d="M27.766 21.145c0.067-0.163 0.163-0.295 0.29-0.395 0.128-0.098 0.271-0.158 0.43-0.18 0.161-0.021 0.325 0.002 0.492 0.071 0.169 0.069 0.302 0.168 0.4 0.295s0.157 0.27 0.177 0.429c0.020 0.158-0.003 0.32-0.071 0.485-0.068 0.167-0.165 0.3-0.291 0.398-0.126 0.101-0.269 0.161-0.427 0.181-0.159 0.022-0.323-0.001-0.492-0.071-0.167-0.068-0.3-0.167-0.4-0.295-0.099-0.125-0.158-0.269-0.18-0.43-0.019-0.16 0.005-0.323 0.072-0.488zM27.969 21.228c-0.050 0.122-0.068 0.241-0.053 0.357 0.017 0.117 0.064 0.222 0.14 0.316 0.078 0.097 0.182 0.172 0.312 0.226 0.133 0.054 0.26 0.074 0.381 0.059 0.12-0.013 0.227-0.056 0.319-0.128 0.094-0.071 0.166-0.167 0.215-0.287s0.065-0.238 0.048-0.355c-0.015-0.116-0.060-0.222-0.136-0.318s-0.18-0.171-0.313-0.226c-0.131-0.054-0.258-0.073-0.381-0.059-0.121 0.015-0.229 0.059-0.323 0.13-0.092 0.072-0.162 0.167-0.21 0.285z">
            </path>
            <path
                d="M27.034 22.887c-0.129 0.069-0.235 0.17-0.319 0.303-0.093 0.147-0.142 0.299-0.148 0.456-0.008 0.159 0.026 0.309 0.102 0.45s0.191 0.26 0.348 0.359c0.155 0.098 0.312 0.15 0.471 0.158 0.161 0.009 0.311-0.025 0.45-0.102 0.139-0.073 0.255-0.184 0.348-0.33 0.085-0.135 0.131-0.275 0.139-0.421 0.006-0.128-0.020-0.253-0.080-0.374l0.302 0.191 0.126-0.2-2.11-1.331-0.131 0.208 0.86 0.542c-0.128 0.003-0.247 0.034-0.357 0.091zM26.797 23.632c0.005-0.117 0.043-0.23 0.112-0.34s0.156-0.193 0.26-0.25c0.105-0.054 0.219-0.078 0.341-0.072 0.123 0.009 0.244 0.051 0.363 0.127s0.208 0.166 0.268 0.272c0.058 0.108 0.085 0.221 0.082 0.339-0.005 0.12-0.042 0.235-0.111 0.344s-0.156 0.191-0.262 0.245c-0.105 0.054-0.219 0.078-0.341 0.072s-0.243-0.046-0.362-0.122-0.209-0.167-0.269-0.276c-0.058-0.108-0.085-0.221-0.082-0.339z">
            </path>
            <path
                d="M25.988 26.966c-0.107 0.102-0.221 0.17-0.342 0.205-0.12 0.038-0.243 0.036-0.368-0.004-0.127-0.039-0.251-0.123-0.372-0.25l-0.729-0.767 0.178-0.17 0.712 0.749c0.132 0.139 0.267 0.21 0.404 0.214 0.137 0.007 0.269-0.050 0.395-0.169 0.094-0.089 0.158-0.187 0.191-0.292 0.034-0.102 0.036-0.208 0.006-0.317-0.030-0.105-0.093-0.208-0.189-0.309l-0.66-0.694 0.178-0.17 1.255 1.32-0.171 0.163-0.228-0.24c0.025 0.11 0.021 0.221-0.012 0.335-0.040 0.143-0.123 0.275-0.251 0.396z">
            </path>
            <path
                d="M23.523 26.771c-0.161 0.013-0.315 0.068-0.461 0.166-0.148 0.099-0.259 0.22-0.333 0.364-0.072 0.146-0.103 0.298-0.091 0.457 0.011 0.162 0.067 0.318 0.167 0.469 0.102 0.152 0.225 0.263 0.369 0.334 0.142 0.072 0.294 0.101 0.455 0.088 0.159-0.012 0.314-0.068 0.464-0.168 0.148-0.099 0.258-0.22 0.33-0.362s0.103-0.294 0.093-0.454c-0.010-0.16-0.065-0.317-0.167-0.469-0.1-0.15-0.223-0.261-0.369-0.334-0.145-0.070-0.297-0.101-0.457-0.091zM22.94 27.385c0.053-0.104 0.134-0.194 0.243-0.267 0.106-0.071 0.217-0.11 0.334-0.119 0.118-0.007 0.232 0.018 0.341 0.073 0.11 0.057 0.205 0.144 0.283 0.262 0.080 0.119 0.124 0.24 0.133 0.362s-0.013 0.235-0.065 0.34c-0.051 0.106-0.131 0.196-0.238 0.268s-0.221 0.111-0.339 0.118c-0.117 0.008-0.229-0.015-0.336-0.072-0.109-0.055-0.204-0.142-0.283-0.262-0.078-0.117-0.123-0.238-0.133-0.362-0.011-0.121 0.009-0.234 0.060-0.341z">
            </path>
            <path
                d="M21.597 27.832l1.332 1.42-0.218 0.090-1.12-1.21 0.049 1.653-0.196 0.081-1.129-1.207 0.055 1.651-0.208 0.086-0.059-1.947 0.215-0.089 1.103 1.161-0.038-1.602 0.215-0.089z">
            </path>
            <path
                d="M18.329 28.941c-0.139-0.022-0.283-0.021-0.431 0.001-0.158 0.023-0.289 0.063-0.393 0.121-0.106 0.060-0.182 0.132-0.228 0.216-0.048 0.087-0.064 0.183-0.049 0.288 0.015 0.099 0.048 0.174 0.1 0.227 0.050 0.056 0.113 0.094 0.189 0.116 0.074 0.024 0.154 0.039 0.242 0.045 0.085 0.008 0.172 0.013 0.258 0.015 0.084 0.002 0.164 0.007 0.238 0.018 0.072 0.013 0.133 0.035 0.182 0.068 0.047 0.033 0.075 0.084 0.086 0.152 0.013 0.087-0.014 0.163-0.082 0.23-0.069 0.069-0.185 0.115-0.348 0.139-0.092 0.014-0.185 0.014-0.28 0.003-0.095-0.009-0.186-0.035-0.275-0.079l-0.078 0.211c0.083 0.039 0.185 0.065 0.306 0.078 0.121 0.015 0.241 0.014 0.357-0.003 0.153-0.023 0.28-0.065 0.381-0.126 0.099-0.059 0.17-0.131 0.213-0.217s0.058-0.178 0.043-0.276c-0.015-0.103-0.048-0.182-0.098-0.238-0.053-0.056-0.116-0.096-0.19-0.123-0.074-0.024-0.153-0.040-0.238-0.046-0.087-0.006-0.174-0.009-0.261-0.011s-0.166-0.007-0.238-0.018c-0.071-0.008-0.131-0.029-0.177-0.061-0.049-0.030-0.078-0.079-0.088-0.145-0.013-0.089 0.014-0.167 0.081-0.233 0.068-0.064 0.187-0.108 0.359-0.134 0.126-0.019 0.249-0.017 0.369 0.005 0.12 0.024 0.221 0.059 0.303 0.103l0.081-0.209c-0.085-0.053-0.197-0.091-0.336-0.115z">
            </path>
            <path
                d="M15.845 30.938c-0.148-0.001-0.277-0.031-0.388-0.090-0.113-0.056-0.2-0.143-0.262-0.259-0.064-0.116-0.095-0.262-0.094-0.438l0.008-1.058 0.246 0.002-0.008 1.034c-0.001 0.192 0.046 0.337 0.142 0.435 0.094 0.1 0.228 0.151 0.401 0.152 0.13 0.001 0.243-0.025 0.341-0.077 0.095-0.050 0.17-0.125 0.224-0.224 0.052-0.097 0.078-0.215 0.079-0.353l0.007-0.958 0.246 0.002-0.020 2.574-0.246-0.002 0.008-1.067c-0.057 0.088-0.134 0.16-0.231 0.216-0.128 0.075-0.28 0.112-0.455 0.111z">
            </path>
            <path
                d="M14.206 29.086c-0.125-0.103-0.273-0.17-0.446-0.201-0.175-0.032-0.339-0.022-0.492 0.030-0.153 0.054-0.281 0.143-0.384 0.265-0.105 0.124-0.174 0.275-0.206 0.453-0.033 0.18-0.022 0.345 0.033 0.496 0.052 0.151 0.141 0.277 0.266 0.38 0.122 0.102 0.272 0.17 0.45 0.202 0.175 0.032 0.338 0.022 0.489-0.031s0.278-0.14 0.383-0.262c0.105-0.122 0.173-0.273 0.206-0.453 0.032-0.178 0.022-0.343-0.033-0.496-0.055-0.151-0.143-0.279-0.265-0.384zM13.36 29.122c0.111-0.039 0.231-0.046 0.36-0.022 0.125 0.023 0.233 0.072 0.322 0.147 0.089 0.078 0.154 0.174 0.194 0.29 0.040 0.118 0.047 0.246 0.021 0.385-0.026 0.141-0.078 0.259-0.156 0.352s-0.173 0.16-0.283 0.199c-0.111 0.041-0.23 0.050-0.358 0.026s-0.236-0.074-0.325-0.151c-0.090-0.075-0.153-0.17-0.191-0.285-0.040-0.115-0.047-0.244-0.021-0.385 0.025-0.139 0.077-0.256 0.156-0.353 0.076-0.094 0.169-0.162 0.28-0.203z">
            </path>
            <path
                d="M11.543 28.277c0.148 0.055 0.268 0.138 0.363 0.249 0.079 0.096 0.133 0.206 0.162 0.33l0.354-0.953 0.231 0.086-0.868 2.339-0.221-0.082 0.124-0.335c-0.106 0.083-0.223 0.135-0.35 0.155-0.144 0.023-0.291 0.007-0.441-0.049-0.163-0.060-0.294-0.151-0.395-0.272-0.104-0.12-0.168-0.259-0.192-0.419-0.025-0.157-0.006-0.322 0.057-0.493 0.064-0.174 0.158-0.312 0.28-0.414s0.262-0.167 0.419-0.192c0.155-0.026 0.314-0.009 0.477 0.051zM11.484 28.488c-0.121-0.045-0.24-0.058-0.355-0.040-0.116 0.021-0.221 0.071-0.315 0.15-0.094 0.081-0.166 0.188-0.215 0.32s-0.064 0.259-0.045 0.38 0.066 0.227 0.141 0.319c0.075 0.092 0.172 0.16 0.294 0.205s0.241 0.057 0.36 0.037c0.116-0.021 0.221-0.071 0.315-0.15 0.091-0.080 0.161-0.186 0.21-0.318s0.065-0.259 0.049-0.381c-0.019-0.121-0.066-0.227-0.141-0.319-0.078-0.090-0.177-0.158-0.298-0.203z">
            </path>
            <path
                d="M7.427 28.042c0.058 0.111 0.148 0.209 0.27 0.293 0.144 0.1 0.291 0.155 0.439 0.165 0.118 0.009 0.228-0.009 0.33-0.056l-0.189 0.272 0.194 0.135 1.039-1.496-0.202-0.141-0.546 0.787c-0.079 0.114-0.167 0.196-0.265 0.247-0.1 0.051-0.204 0.071-0.311 0.059-0.11-0.012-0.218-0.055-0.325-0.128-0.143-0.099-0.224-0.216-0.245-0.352-0.024-0.135 0.018-0.282 0.128-0.439l0.59-0.849-0.202-0.141-0.604 0.869c-0.1 0.144-0.157 0.283-0.17 0.414-0.015 0.131 0.009 0.251 0.070 0.361z">
            </path>
            <path
                d="M7.135 25.469c0.125 0.123 0.21 0.263 0.256 0.418 0.042 0.155 0.043 0.311 0.003 0.466-0.041 0.157-0.125 0.3-0.252 0.429-0.128 0.13-0.27 0.216-0.425 0.258s-0.31 0.042-0.464 0.001c-0.154-0.041-0.295-0.125-0.421-0.25-0.129-0.127-0.215-0.267-0.258-0.42-0.045-0.155-0.047-0.31-0.006-0.464 0.040-0.156 0.124-0.299 0.252-0.429 0.127-0.129 0.268-0.215 0.425-0.258 0.153-0.044 0.309-0.045 0.466-0.003 0.156 0.043 0.297 0.127 0.424 0.252zM6.982 25.624c-0.094-0.093-0.197-0.154-0.311-0.184-0.115-0.029-0.23-0.025-0.346 0.010-0.119 0.035-0.228 0.103-0.327 0.204-0.101 0.102-0.167 0.212-0.199 0.33-0.034 0.116-0.034 0.231-0.002 0.344 0.030 0.114 0.092 0.217 0.184 0.308s0.196 0.151 0.31 0.179c0.113 0.030 0.228 0.029 0.346-0.005s0.227-0.101 0.327-0.204c0.099-0.101 0.165-0.211 0.199-0.33 0.032-0.118 0.033-0.234 0.002-0.349-0.032-0.113-0.093-0.214-0.184-0.303z">
            </path>
            <path
                d="M4.848 25.819l1.116-1.595-0.131-0.192-1.56 0.367 0.91-1.318-0.131-0.192-1.894 0.458 0.127 0.186 1.605-0.393-0.949 1.352 0.119 0.175 1.608-0.388-0.954 1.344 0.133 0.195z">
            </path>
            <path
                d="M4.116 20.836c0.052 0.141 0.082 0.281 0.090 0.422 0.005 0.141-0.009 0.259-0.043 0.353l-0.221-0.037c0.026-0.089 0.039-0.195 0.038-0.317-0.003-0.122-0.027-0.243-0.071-0.362-0.060-0.163-0.129-0.27-0.205-0.323-0.079-0.052-0.16-0.063-0.245-0.031-0.063 0.023-0.104 0.062-0.123 0.116-0.022 0.053-0.030 0.115-0.023 0.186 0.005 0.072 0.015 0.151 0.032 0.236s0.031 0.171 0.044 0.258c0.012 0.084 0.013 0.165 0.005 0.242-0.011 0.078-0.037 0.148-0.081 0.211-0.044 0.061-0.115 0.109-0.212 0.145-0.093 0.035-0.186 0.040-0.279 0.015s-0.179-0.079-0.257-0.164c-0.081-0.086-0.149-0.201-0.203-0.347-0.041-0.111-0.067-0.227-0.078-0.349-0.013-0.121-0.009-0.226 0.013-0.316l0.223 0.032c-0.024 0.095-0.031 0.19-0.020 0.285 0.008 0.096 0.029 0.187 0.061 0.274 0.057 0.154 0.126 0.258 0.208 0.312 0.079 0.052 0.159 0.063 0.242 0.033 0.065-0.024 0.109-0.063 0.131-0.115 0.022-0.055 0.031-0.119 0.029-0.192-0.005-0.075-0.016-0.153-0.032-0.236-0.017-0.085-0.030-0.17-0.039-0.256-0.012-0.087-0.014-0.168-0.006-0.246 0.005-0.079 0.030-0.148 0.074-0.209 0.041-0.062 0.108-0.11 0.202-0.145 0.1-0.037 0.197-0.041 0.292-0.012 0.092 0.028 0.178 0.087 0.258 0.178 0.078 0.090 0.144 0.209 0.2 0.359z">
            </path>
            <path
                d="M1.756 18.883c-0.035 0.12-0.037 0.253-0.008 0.398 0.035 0.172 0.102 0.313 0.203 0.423 0.074 0.083 0.16 0.144 0.259 0.181l-1.046 0.212 0.049 0.242 2.523-0.511-0.049-0.242-0.939 0.19c-0.136 0.028-0.257 0.026-0.362-0.005-0.108-0.032-0.196-0.090-0.265-0.173-0.071-0.085-0.12-0.19-0.146-0.317-0.034-0.17-0.012-0.311 0.066-0.424 0.076-0.114 0.208-0.191 0.396-0.229l1.013-0.205-0.049-0.241-1.037 0.21c-0.172 0.035-0.309 0.096-0.409 0.182-0.101 0.084-0.167 0.187-0.199 0.309z">
            </path>
            <path
                d="M19.165 2.296c-0.098-0.078-0.22-0.131-0.365-0.159-0.173-0.034-0.329-0.025-0.468 0.026-0.112 0.039-0.205 0.1-0.28 0.184l0.063-0.325-0.232-0.045-0.348 1.788 0.242 0.047 0.183-0.94c0.027-0.136 0.074-0.247 0.143-0.333 0.071-0.087 0.158-0.147 0.261-0.179 0.106-0.034 0.222-0.038 0.349-0.013 0.17 0.033 0.293 0.108 0.367 0.223 0.077 0.114 0.097 0.265 0.060 0.454l-0.198 1.015 0.242 0.047 0.202-1.039c0.034-0.173 0.030-0.322-0.012-0.448-0.039-0.125-0.109-0.226-0.21-0.302z">
            </path>
            <path
                d="M20.456 4.527c-0.164-0.063-0.298-0.156-0.402-0.28-0.101-0.125-0.164-0.267-0.19-0.426-0.025-0.161-0.005-0.325 0.060-0.494 0.065-0.171 0.161-0.306 0.286-0.407s0.267-0.163 0.425-0.186c0.158-0.024 0.32-0.004 0.486 0.060 0.168 0.065 0.303 0.159 0.405 0.282 0.104 0.124 0.167 0.265 0.191 0.423 0.026 0.159 0.006 0.323-0.060 0.494-0.065 0.168-0.16 0.304-0.286 0.407-0.123 0.101-0.265 0.165-0.426 0.19-0.16 0.023-0.323 0.002-0.489-0.061zM20.535 4.323c0.123 0.047 0.242 0.062 0.358 0.045 0.116-0.020 0.221-0.069 0.313-0.147 0.095-0.080 0.168-0.186 0.218-0.318 0.051-0.134 0.068-0.261 0.050-0.382-0.016-0.12-0.061-0.225-0.135-0.316-0.073-0.093-0.171-0.162-0.291-0.209s-0.24-0.060-0.356-0.040c-0.116 0.018-0.221 0.065-0.315 0.143s-0.167 0.184-0.219 0.318c-0.050 0.132-0.067 0.259-0.050 0.382 0.018 0.121 0.064 0.228 0.137 0.32 0.074 0.090 0.171 0.158 0.29 0.204z">
            </path>
            <path
                d="M22.457 3.307l-0.391 1.907 0.197 0.124 1.286-0.956-0.312 1.57 0.197 0.124 1.556-1.172-0.191-0.12-1.317 0.998 0.334-1.618-0.179-0.113-1.322 0.994 0.342-1.613-0.2-0.126z">
            </path>
            <path
                d="M25.095 7.565c-0.104-0.108-0.188-0.225-0.251-0.351-0.061-0.127-0.095-0.241-0.102-0.341l0.217-0.055c0.011 0.092 0.042 0.194 0.093 0.306 0.052 0.111 0.122 0.212 0.21 0.303 0.12 0.125 0.226 0.196 0.318 0.214 0.093 0.016 0.172-0.007 0.237-0.069 0.048-0.047 0.071-0.098 0.067-0.156-0.001-0.057-0.018-0.117-0.053-0.18-0.033-0.064-0.074-0.132-0.124-0.203s-0.097-0.144-0.143-0.219c-0.045-0.073-0.078-0.146-0.102-0.22-0.021-0.076-0.025-0.151-0.011-0.226 0.016-0.073 0.062-0.146 0.136-0.218 0.072-0.069 0.155-0.111 0.25-0.125s0.195 0.001 0.301 0.047c0.109 0.046 0.217 0.125 0.324 0.237 0.082 0.085 0.152 0.181 0.211 0.288 0.060 0.106 0.099 0.204 0.115 0.294l-0.217 0.060c-0.016-0.097-0.048-0.187-0.096-0.269-0.046-0.084-0.101-0.16-0.165-0.226-0.114-0.118-0.219-0.186-0.315-0.202-0.093-0.016-0.171 0.006-0.234 0.067-0.050 0.048-0.075 0.101-0.074 0.158 0.002 0.059 0.019 0.121 0.050 0.187 0.035 0.066 0.076 0.134 0.124 0.203 0.050 0.071 0.096 0.144 0.138 0.218 0.046 0.074 0.081 0.149 0.104 0.223 0.026 0.074 0.032 0.148 0.016 0.221-0.013 0.073-0.055 0.145-0.126 0.214-0.077 0.074-0.164 0.116-0.263 0.128-0.095 0.011-0.198-0.008-0.308-0.060-0.107-0.051-0.216-0.134-0.327-0.249z">
            </path>
            <path
                d="M28.050 8.413c-0.017-0.124-0.068-0.247-0.153-0.368-0.101-0.144-0.22-0.245-0.356-0.305-0.101-0.046-0.204-0.067-0.31-0.062l0.872-0.615-0.142-0.201-2.104 1.484 0.142 0.201 0.783-0.552c0.113-0.080 0.224-0.127 0.333-0.142 0.112-0.014 0.216 0.003 0.312 0.051 0.1 0.049 0.187 0.126 0.261 0.232 0.1 0.142 0.137 0.28 0.11 0.415-0.024 0.135-0.114 0.258-0.27 0.369l-0.845 0.596 0.142 0.201 0.865-0.61c0.144-0.101 0.244-0.212 0.301-0.331 0.059-0.118 0.078-0.239 0.058-0.363z">
            </path>
            <path
                d="M27.442 10.925c-0.075-0.159-0.107-0.319-0.096-0.48 0.014-0.16 0.067-0.306 0.157-0.439 0.093-0.133 0.221-0.239 0.384-0.316 0.165-0.078 0.328-0.11 0.488-0.096s0.305 0.067 0.436 0.159c0.13 0.092 0.234 0.218 0.31 0.38 0.077 0.163 0.11 0.324 0.098 0.483-0.011 0.161-0.062 0.307-0.154 0.437-0.091 0.132-0.219 0.238-0.384 0.316-0.163 0.077-0.326 0.109-0.488 0.096-0.159-0.012-0.306-0.064-0.439-0.157-0.131-0.094-0.235-0.222-0.311-0.383zM27.64 10.832c0.056 0.119 0.132 0.213 0.228 0.28 0.098 0.066 0.207 0.103 0.328 0.11 0.124 0.008 0.25-0.018 0.377-0.078 0.13-0.061 0.23-0.142 0.3-0.242 0.072-0.098 0.112-0.205 0.12-0.322 0.011-0.118-0.011-0.235-0.067-0.352s-0.132-0.209-0.23-0.275c-0.096-0.067-0.205-0.105-0.327-0.114s-0.248 0.017-0.377 0.078c-0.128 0.060-0.228 0.141-0.3 0.242-0.071 0.1-0.111 0.209-0.122 0.326-0.009 0.117 0.014 0.233 0.068 0.348z">
            </path>
            <path
                d="M28.225 12.61c-0.035 0.142-0.032 0.288 0.009 0.44 0.046 0.167 0.125 0.306 0.237 0.417 0.113 0.113 0.246 0.189 0.401 0.228s0.321 0.034 0.5-0.015c0.176-0.048 0.321-0.129 0.434-0.242 0.115-0.113 0.191-0.247 0.228-0.401 0.040-0.152 0.036-0.312-0.010-0.48-0.042-0.154-0.115-0.283-0.218-0.386-0.091-0.091-0.201-0.156-0.33-0.193l0.345-0.095-0.063-0.227-2.405 0.662 0.065 0.238 0.98-0.27c-0.084 0.097-0.142 0.205-0.173 0.325zM28.617 13.287c-0.083-0.083-0.141-0.187-0.176-0.312s-0.037-0.245-0.009-0.361c0.031-0.114 0.090-0.214 0.176-0.3 0.090-0.085 0.202-0.146 0.338-0.183s0.263-0.042 0.381-0.015c0.119 0.030 0.22 0.086 0.305 0.168 0.086 0.084 0.146 0.189 0.18 0.314s0.036 0.244 0.005 0.358c-0.031 0.114-0.090 0.214-0.176 0.3s-0.198 0.148-0.334 0.185-0.264 0.042-0.385 0.012c-0.119-0.030-0.22-0.086-0.305-0.168z">
            </path>
        </symbol>
        <symbol id="btn-arrow" viewBox="0 0 32 32">
            <path
                d="M11.079 18.921c-0.090 0.056-0.118 0.175-0.061 0.266s0.175 0.118 0.266 0.061l-0.204-0.327zM21.177 12.999c0.024-0.104-0.041-0.207-0.144-0.231l-1.69-0.39c-0.104-0.024-0.207 0.041-0.231 0.144s0.041 0.207 0.144 0.231l1.503 0.347-0.347 1.503c-0.024 0.104 0.041 0.207 0.144 0.231s0.207-0.041 0.231-0.144l0.39-1.69zM11.283 19.248l9.809-6.129-0.204-0.327-9.809 6.129 0.204 0.327z">
            </path>
        </symbol>
        <!-- "Thank U" modal icon -->
        <symbol id="icon-modal-1-desk" viewBox="0 0 58 32">
            <path fill="#f58b3d" style="fill: var(--color1, #f58b3d)" opacity="0.25453134912100006"
                d="M46.999 25.599c0.539 3.691-12.54 6.099-23.798 4.419s-16.423-8.242-11.051-11.738c5.372-3.496 34.309 3.628 34.849 7.319z">
            </path>
            <path fill="#f58b3d" style="fill: var(--color1, #f58b3d)"
                d="M30.819 10.218c0.204-0.142 0.519-0.052 0.724 0.032 0.079 0.032 0.281 0.136 0.43 0.253-0.020-0.081-0.037-0.162-0.053-0.245-0.063-0.338-0.107-0.682-0.128-1.025-0.005-0.089 0.002-0.189 0.009-0.29v-0c0.002-0.034 0.005-0.069 0.007-0.103-0.008-0.008-0.014-0.019-0.016-0.034-0.001 0.006-0.001 0.011-0.002 0.015-0.001 0.006-0.001 0.009-0.002 0.010s-0.003-0.002-0.007-0.008c-0.001-0.002-0.003-0.005-0.005-0.007-0.151-0.207-0.279-0.441-0.296-0.698-0.015-0.218 0.181-0.63 0.458-0.344 0.124 0.127 0.092 1.022-0.094 1.077 0.050 0.296 0.112 0.592 0.191 0.884 0.012-0.002 0.024-0.002 0.035-0.001-0.001-0.073-0.001-0.152 0.002-0.179 0.028-0.235 0.242-0.711 0.583-0.619 0.262 0.071 0.101 0.364 0.012 0.492-0.144 0.206-0.306 0.296-0.512 0.403-0.004 0.044-0.035 0.070-0.072 0.079 0.138 0.472 0.319 0.932 0.556 1.367l0.006-0.028c0.030-0.132 0.065-0.286 0.087-0.318 0.116-0.169 0.373-0.376 0.61-0.276 0.498 0.21-0.042 0.815-0.466 0.881-0.018 0.022-0.036 0.040-0.056 0.050 0.082 0.131 0.17 0.26 0.264 0.385 0.141 0.188 0.293 0.376 0.452 0.563 0.005-0.146 0.068-0.471 0.086-0.506 0.109-0.212 0.422-0.431 0.676-0.28 0.286 0.17 0.027 0.491-0.136 0.637-0.067 0.060-0.397 0.278-0.514 0.279 0.384 0.44 0.808 0.872 1.24 1.289-0.036-0.187-0.082-0.7-0.077-0.757 0.027-0.294 0.238-0.765 0.654-0.65 0.404 0.111 0.225 0.6 0.087 0.833-0.084 0.141-0.199 0.284-0.339 0.383-0.025 0.018-0.058 0.032-0.091 0.047-0.040 0.017-0.079 0.035-0.105 0.058-0.023 0.021-0.030 0.044-0.037 0.067-0.007 0.025-0.015 0.049-0.041 0.070 0.233 0.224 0.468 0.444 0.699 0.657 0.109 0.101 0.22 0.2 0.333 0.297 0.061-0.023 0.149 0.007 0.144 0.087-0.001 0.012-0.004 0.022-0.007 0.031 0.085 0.072 0.171 0.144 0.257 0.216-0.002-0.021-0.001-0.050 0.003-0.090-0.062 0.081-0.060-0.037-0.057-0.127 0.001-0.032 0.001-0.060-0.001-0.075-0.009-0.058-0.021-0.115-0.033-0.172-0.025-0.122-0.050-0.243-0.049-0.369 0.003-0.267 0.187-0.715 0.576-0.556 0.357 0.146 0.227 0.542 0.093 0.79-0.085 0.157-0.202 0.297-0.324 0.431-0.022 0.024-0.046 0.056-0.070 0.089-0.036 0.048-0.071 0.095-0.096 0.112 0.332 0.272 0.672 0.537 1.011 0.801l0 0c0.152 0.118 0.304 0.237 0.455 0.356 0.007-0.026 0.012-0.052 0.017-0.076-0.010 0.010-0.022 0.014-0.039 0.013-0.004-0.020-0.011-0.047-0.019-0.079-0.093-0.39-0.378-1.58 0.393-1.349 0.565 0.169 0.166 1.205-0.255 1.567 0.256 0.202 0.509 0.407 0.757 0.618 0.179 0.153 0.353 0.311 0.52 0.474-0.087-0.211-0.168-0.485-0.114-0.702 0.078-0.317 0.443-0.616 0.799-0.436 0.444 0.226 0.102 0.534-0.218 0.823-0.163 0.148-0.322 0.29-0.367 0.414 0.531 0.535 0.985 1.13 1.288 1.807 0.33 0.736 0.636 1.726 0.466 2.55 0.031-0.362-0.102-0.817-0.196-1.137-0.013-0.043-0.025-0.084-0.036-0.122-0.141-0.496-0.341-0.978-0.605-1.429-0.423-0.723-0.981-1.336-1.626-1.893-0.147 0.047-0.306 0.134-0.438 0.205-0.081 0.044-0.152 0.083-0.203 0.103-0.247 0.097-0.72 0.237-0.878-0.070-0.155-0.302 0.24-0.471 0.484-0.539 0.236-0.065 0.449-0.058 0.67-0.004-0.341-0.277-0.691-0.546-1.041-0.814l-0-0c-0.064-0.049-0.128-0.099-0.193-0.148-0.089 0.067-0.187 0.163-0.291 0.266-0.331 0.325-0.723 0.71-1.073 0.396-0.528-0.475 0.482-0.958 0.912-0.92 0.053 0.005 0.104 0.015 0.154 0.029-0.439-0.341-0.871-0.69-1.28-1.062-0.073 0.012-0.19 0.111-0.33 0.23-0.315 0.267-0.749 0.634-1.076 0.345-0.236-0.209-0.155-0.534 0.073-0.72s0.561-0.186 0.843-0.124c0.122 0.027 0.234 0.079 0.339 0.142 0.004 0 0.009 0 0.013 0.001-0.402-0.371-0.807-0.75-1.196-1.142-0.007 0.002-0.014 0.004-0.021 0.006-0.024 0.026-0.063 0.036-0.099 0.030-0.020 0.006-0.040 0.013-0.061 0.019-0.309 0.098-0.705 0.223-1.013 0.169-0.226-0.040-0.432-0.208-0.24-0.416 0.156-0.169 0.579-0.145 0.785-0.105 0.101 0.020 0.21 0.076 0.32 0.133 0.046 0.024 0.093 0.048 0.138 0.069 0.012-0.022 0.033-0.036 0.056-0.043-0.385-0.394-0.752-0.801-1.085-1.227-0.101 0.014-0.213 0.055-0.328 0.097-0.277 0.101-0.575 0.209-0.789-0.024-0.316-0.344 0.278-0.544 0.56-0.511 0.095 0.011 0.189 0.036 0.28 0.068-0.242-0.35-0.428-0.724-0.557-1.117-0.001 0.001-0.002 0.001-0.004 0.002v0c-0.002 0.001-0.004 0.002-0.006 0.003 0.002-0.001 0.004-0.002 0.005-0.003s0.003-0.002 0.004-0.002c-0.013-0.039-0.025-0.079-0.037-0.118-0.022-0.011-0.043-0.020-0.052-0.023 0.128 0.081-0.413 0.121-0.514 0.128-0.224 0.016-0.524 0.023-0.688-0.146-0.138-0.141-0.13-0.35 0.039-0.468zM41.124 22.106c-0.010 0.119-0.033 0.229-0.077 0.319 0.033-0.103 0.058-0.209 0.077-0.319z">
            </path>
            <path fill="#f1f447" style="fill: var(--color2, #f1f447)" opacity="0.2"
                d="M20.656 2.591c-0.149-0.103-0.379-0.037-0.529 0.024-0.058 0.023-0.205 0.098-0.314 0.183 0.014-0.058 0.027-0.117 0.039-0.177 0.046-0.244 0.078-0.494 0.094-0.741 0.004-0.065-0.001-0.137-0.006-0.21v-0c-0.002-0.025-0.003-0.050-0.005-0.074 0.006-0.006 0.010-0.014 0.012-0.025 0.001 0.005 0.001 0.008 0.001 0.011 0 0.004 0.001 0.007 0.001 0.007s0.002-0.002 0.005-0.006c0.001-0.002 0.002-0.003 0.004-0.005 0.111-0.15 0.204-0.319 0.216-0.504 0.011-0.157-0.132-0.455-0.334-0.249-0.091 0.092-0.067 0.739 0.068 0.779-0.036 0.214-0.082 0.428-0.14 0.64-0.009-0.001-0.017-0.002-0.026-0 0.001-0.053 0.001-0.11-0.001-0.13-0.020-0.17-0.177-0.514-0.426-0.447-0.191 0.052-0.074 0.263-0.009 0.356 0.105 0.149 0.223 0.214 0.373 0.291 0.003 0.032 0.026 0.051 0.053 0.057-0.101 0.341-0.233 0.674-0.406 0.988l-0.005-0.020c-0.022-0.095-0.048-0.207-0.064-0.23-0.085-0.122-0.272-0.271-0.445-0.199-0.363 0.152 0.031 0.589 0.34 0.637 0.013 0.016 0.026 0.029 0.041 0.036-0.060 0.095-0.124 0.188-0.193 0.278-0.103 0.136-0.214 0.272-0.33 0.407-0.004-0.106-0.049-0.341-0.062-0.366-0.079-0.153-0.308-0.311-0.493-0.202-0.209 0.123-0.020 0.355 0.099 0.46 0.049 0.043 0.29 0.201 0.375 0.202-0.281 0.318-0.591 0.631-0.906 0.933 0.026-0.135 0.061-0.506 0.057-0.548-0.020-0.213-0.173-0.553-0.477-0.47-0.295 0.080-0.165 0.434-0.064 0.603 0.061 0.102 0.146 0.206 0.247 0.277 0.018 0.013 0.042 0.023 0.066 0.034 0.029 0.013 0.058 0.025 0.076 0.042 0.017 0.015 0.022 0.032 0.027 0.049s0.011 0.035 0.030 0.050c-0.17 0.162-0.342 0.321-0.511 0.476-0.080 0.073-0.161 0.144-0.243 0.215-0.045-0.017-0.109 0.005-0.105 0.063 0 0.008 0.003 0.016 0.006 0.022-0.062 0.052-0.125 0.104-0.188 0.156 0.001-0.015 0.001-0.036-0.002-0.065 0.045 0.058 0.043-0.027 0.042-0.092-0-0.023-0.001-0.043 0.001-0.054 0.007-0.042 0.015-0.083 0.024-0.124 0.019-0.088 0.037-0.176 0.036-0.267-0.002-0.193-0.137-0.517-0.42-0.402-0.261 0.106-0.166 0.392-0.068 0.571 0.062 0.114 0.148 0.215 0.236 0.312 0.016 0.017 0.034 0.041 0.051 0.064 0.026 0.035 0.051 0.068 0.070 0.081-0.242 0.197-0.49 0.388-0.738 0.58l-0 0c-0.111 0.086-0.222 0.171-0.333 0.258-0.005-0.019-0.009-0.038-0.012-0.055 0.007 0.007 0.016 0.010 0.028 0.010 0.003-0.014 0.008-0.034 0.014-0.057 0.068-0.282 0.277-1.143-0.286-0.976-0.413 0.123-0.122 0.871 0.186 1.133-0.187 0.146-0.372 0.295-0.553 0.447-0.131 0.11-0.258 0.225-0.38 0.343 0.063-0.153 0.123-0.351 0.084-0.508-0.057-0.229-0.323-0.445-0.583-0.315-0.324 0.163-0.075 0.386 0.159 0.595 0.119 0.107 0.235 0.21 0.268 0.299-0.388 0.387-0.72 0.817-0.941 1.307-0.241 0.533-0.465 1.248-0.342 1.844-0.023-0.262 0.075-0.591 0.144-0.822 0.009-0.031 0.018-0.061 0.026-0.089 0.103-0.358 0.25-0.707 0.443-1.033 0.309-0.523 0.717-0.967 1.188-1.37 0.107 0.034 0.224 0.097 0.32 0.148 0.059 0.032 0.111 0.060 0.148 0.074 0.18 0.070 0.526 0.171 0.641-0.051 0.113-0.218-0.175-0.341-0.353-0.389-0.172-0.047-0.328-0.041-0.489-0.003 0.249-0.201 0.505-0.395 0.76-0.589 0.047-0.036 0.094-0.071 0.141-0.107 0.065 0.048 0.137 0.118 0.213 0.192 0.241 0.235 0.527 0.513 0.783 0.286 0.386-0.344-0.352-0.692-0.666-0.665-0.039 0.003-0.076 0.011-0.112 0.021 0.321-0.247 0.636-0.499 0.935-0.769 0.054 0.009 0.139 0.080 0.241 0.166v0c0.23 0.193 0.547 0.458 0.785 0.249 0.172-0.151 0.113-0.386-0.053-0.521s-0.41-0.135-0.615-0.089c-0.089 0.020-0.171 0.057-0.248 0.103-0.003 0-0.006 0-0.009 0 0.294-0.268 0.589-0.542 0.874-0.826 0.005 0.001 0.010 0.003 0.015 0.004 0.017 0.019 0.046 0.026 0.072 0.022 0.014 0.004 0.029 0.009 0.044 0.014l0 0c0.225 0.070 0.515 0.161 0.739 0.122 0.165-0.029 0.315-0.151 0.176-0.301-0.114-0.122-0.422-0.104-0.573-0.075-0.073 0.014-0.154 0.055-0.234 0.096-0.034 0.017-0.067 0.035-0.101 0.050-0.009-0.016-0.024-0.026-0.041-0.031 0.281-0.285 0.549-0.58 0.793-0.887 0.073 0.010 0.155 0.040 0.239 0.070 0.203 0.073 0.42 0.151 0.576-0.018 0.23-0.249-0.203-0.393-0.409-0.37-0.070 0.008-0.138 0.026-0.204 0.050 0.177-0.253 0.312-0.524 0.407-0.808 0.001 0 0.002 0.001 0.003 0.001s0.003 0.001 0.004 0.002c-0.001-0.001-0.003-0.001-0.004-0.002s-0.002-0.001-0.003-0.002c0.009-0.028 0.019-0.057 0.027-0.086 0.016-0.008 0.031-0.014 0.038-0.017-0.094 0.059 0.301 0.087 0.375 0.092 0.163 0.012 0.382 0.016 0.503-0.105 0.101-0.102 0.095-0.253-0.028-0.338zM13.12 11.167c0.007 0.080 0.029 0.152 0.071 0.212-0.031-0.068-0.054-0.139-0.071-0.212z">
            </path>
            <path fill="#b45661" style="fill: var(--color3, #b45661)" opacity="0.48999999999999994"
                d="M36.709 16.63c0.801-0.038 1.792 0.39 1.878 1.187 0.062 0.579 0.043 1.156 0.139 1.735 0.077 0.462 0.239 0.906 0.461 1.326 0.213 0.405 0.655 0.749 0.77 1.182 0.073 0.276 0.032 0.663-0.069 0.933-0.123 0.328-0.057 0.302 0.187 0.577 0.48 0.539 0.912 1.091 1.218 1.735 0.44 0.927 0.729 2.010 0.565 3.025-0.021 0.129-0.045 0.591-0.239 0.623-0.217 0.036-0.115-0.228-0.104-0.314 0.074-0.545 0.139-1.021 0.050-1.575-0.343-2.136-2.017-3.543-3.108-5.355-0.060-0.093-0.186-0.316-0.275-0.463-0.139-0.232-0.279-0.673-0.467-0.845-0.354-0.324-0.029 0.327 0.040 0.451 0.087 0.157 0.183 0.324 0.273 0.462 0.409 0.639 0.866 1.336 1.288 1.994-1.827 0.381-3.114-1.629-3.604-2.95-0.404-1.089-0.887-3.634 0.995-3.727z">
            </path>
            <path fill="#e7502f" style="fill: var(--color4, #e7502f)" opacity="0.48999999999999994"
                d="M47.448 14.608c-1.339 0.097-2.199 0.906-2.599 2.037-0.216 0.609-0.24 1.236-0.36 1.862-0.18 0.942-0.568 1.657-1.327 2.328-0.235 0.208-0.408 0.421-0.531 0.65-0.244 0.228-0.457 0.486-0.613 0.802-0.199 0.403-0.256 0.886-0.026 1.288 0.062 0.108 0.217 0.325 0.377 0.423-0.6 1.168-0.929 2.448-0.892 3.726 0.023 0.771 0.064 1.543 0.112 2.314 0.013 0.207 0.087 0.549 0.197 0.201 0.101-0.317-0.026-0.816-0.038-1.147-0.057-1.615-0.106-3.084 0.621-4.593 0.076-0.158 0.157-0.315 0.241-0.471 0.005-0.003 0.010-0.006 0.014-0.009 0.003 0.002 0.006 0.005 0.009 0.007 0.005-0.009 0.013-0.019 0.021-0.031 0.024-0.023 0.045-0.052 0.065-0.084 0.064-0.082 0.137-0.178 0.138-0.23 0-0-0-0.001-0-0.001 0.45-0.672 0.965-1.307 1.492-1.929-0.004 0.005 0.571-0.712 0.482-0.316-0.043 0.191-0.466 0.554-0.636 0.756-0.378 0.45-0.821 1.020-1.19 1.571-0.050 0.026-0.12 0.154-0.17 0.25-0.028 0.048-0.054 0.097-0.080 0.14 1.306 0.395 2.322-0.401 3.015-1.326 0.001-0.001 0.002-0.002 0.002-0.003 0.211-0.256 0.427-0.509 0.697-0.712 0.45-0.337 0.932-0.397 1.463-0.563 1.447-0.453 2.063-2.169 2.258-3.443 0.221-1.437-0.858-3.64-2.742-3.498z">
            </path>
            <path fill="#e7502f" style="fill: var(--color4, #e7502f)" opacity="0.48999999999999994"
                d="M44.802 10.585c-1.375 1.309-2.039 3.125-2.565 4.832-0.587 1.907-0.975 3.842-0.99 5.825-0.010 1.302-0.048 2.613 0.035 3.913 0.029 0.462 0.080 0.925 0.16 1.382 0.007 0.038 0.186 1.058 0.357 0.82 0.097-0.135-0.184-1.059-0.205-1.212-0.119-0.866-0.147-1.739-0.141-2.611 0.010-1.436-0.037-2.866 0.122-4.297 0.024-0.214 0.042-0.438 0.098-0.647 0.059-0.222-0.016-0.125 0.176-0.213 0.186-0.086 0.417-0.073 0.61-0.181 0.767-0.426 1.16-1.519 1.465-2.236 0.349-0.82 0.562-1.695 0.731-2.559 0.125-0.634 0.214-1.265 0.264-1.907 0.016-0.203 0.017-0.414 0.060-0.613 0.012-0.054 0.071-0.149 0.068-0.196-0.005-0.101-0.071-0.16-0.076-0.244-0.058 0.047-0.114 0.096-0.169 0.146z">
            </path>
            <path fill="#e7502f" style="fill: var(--color4, #e7502f)" opacity="0.48999999999999994"
                d="M37.306 28.026c0 2.165 1.918 3.92 4.284 3.92s4.284-1.755 4.284-3.92z"></path>
            <path fill="#b45661" style="fill: var(--color3, #b45661)" opacity="0.48999999999999994"
                d="M44.527 24.594c1.060-0.071 2.244 0.711 2.756 1.526 0.412 0.657 0.343 1.519 0.088 2.217-0.17 0.467-0.543 1.133-1.163 1.139-0.777 0.008-0.814-0.87-0.829-1.383-0.020-0.682-0.114-1.277-0.702-1.742-0.073-0.057-0.149-0.111-0.225-0.165-0.068-0.048-0.135-0.095-0.2-0.146-0.010-0.008-0.021-0.016-0.031-0.024-0.208-0.16-0.426-0.328-0.453-0.591-0.038-0.382 0.197-0.451 0.557-0.38 0.012 0.002 0.043 0.013 0.086 0.028 0.184 0.064 0.576 0.2 0.501 0.037-0.028-0.061-0.13-0.11-0.259-0.146-0.333-0.033-0.73-0.072-0.844-0.049-1.232 0.247-1.712 1.809-1.839 2.801-0.014 0.107-0.025 0.215-0.035 0.322h-0.226c0.016-0.26 0.037-0.519 0.084-0.776 0.182-0.983 0.749-2.426 1.995-2.586 0.046-0.006 0.215-0.007 0.42 0.004 0.097-0.050 0.206-0.080 0.32-0.087z">
            </path>
            <path fill="#b45661" style="fill: var(--color3, #b45661)" opacity="0.25"
                d="M18.539 9.471c0.247-0.322 0.704-1.139 1.051-1.254 0.224-0.074 0.158 0.692 0.161 0.838 0.011 0.565-0.049 1.127-0.124 1.687-0.134 1.011-0.571 1.911-1.171 2.771-0.309 0.443-0.671 0.891-1.172 1.167-0.231 0.127-0.509 0.148-0.737 0.258-0.265 0.128-0.121 0.024-0.241 0.278-0.166 0.351-0.219 0.805-0.296 1.18-0.353 1.722-1.208 10.823-1.059 12.574 0.013 0.155-0.223 0.192-0.235 0.003-0.063-1.005 0.48-7.963 0.754-10.238s0.551-4.286 0.829-5.073c0.337-0.955 0.947-2.104 1.454-2.994 0.236-0.414 0.492-0.813 0.785-1.196z">
            </path>
            <path fill="#f1f447" style="fill: var(--color2, #f1f447)" opacity="0.25"
                d="M20.369 20.631c0.642-0.431 1.337 0.382 0.756 0.814-0.321 0.238-0.657 0.154-0.846-0.045-0.123 0.137-0.237 0.28-0.348 0.401-0.336 0.368-0.654 0.745-0.957 1.131-0.631 0.801-1.171 1.648-1.736 2.479-0.558 0.82-1.111 1.645-1.616 2.486-0.428 0.713-0.999 1.551-1.146 2.332 0.222-1.657 1.066-3.249 2.072-4.71 0.997-1.449 2.141-3.031 3.685-4.174-0.157-0.211-0.161-0.513 0.137-0.713z">
            </path>
            <path fill="#b45661" style="fill: var(--color3, #b45661)" opacity="0.25"
                d="M8.191 16.591c0.359 0.064 0.946 0.807 1.242 1.091 0.352 0.337 0.671 0.695 0.972 1.071 0.648 0.809 1.227 1.669 1.72 2.566 0.803 1.462 1.446 2.963 1.913 4.556 0.286 0.975 0.471 1.985 0.58 2.988 0.021 0.189 0.238 1.648-0.075 1.687-0.281 0.035-0.194-1.108-0.208-1.263-0.153-1.754-0.612-3.461-1.251-5.114-0.139-0.36-0.268-0.801-0.491-1.125-0.16-0.233-0.001-0.152-0.283-0.24-0.242-0.076-0.517-0.057-0.764-0.15-0.538-0.202-0.968-0.593-1.345-0.987-0.733-0.766-1.314-1.594-1.617-2.575-0.168-0.544-0.322-1.091-0.408-1.652-0.022-0.145-0.216-0.894 0.015-0.852z">
            </path>
            <path fill="#e7502f" style="fill: var(--color4, #e7502f)" opacity="0.25"
                d="M9.609 4.223c1.353 2.146 2.464 4.504 3.182 6.893 0.435 1.447 0.739 2.932 1.041 4.406 0.468 2.282 0.91 4.565 1.036 6.888 0.127 2.336 0.377 5.031-0.459 7.282 0.418-2.285 0.020-4.717-0.050-7.016-0.034-1.098-0.131-2.184-0.259-3.275-0.124-1.058-0.327-2.112-0.516-3.162-0.092-0.511-0.189-1.022-0.287-1.532-0.029-0.152-0.042-0.604-0.147-0.708s-0.648-0.147-0.819-0.224c-0.343-0.155-0.665-0.374-0.95-0.607-0.547-0.445-1.023-1.027-1.398-1.6-0.869-1.327-1.216-2.946-1.199-4.483 0.003-0.298 0.528-3.511 0.317-3.555 0.013-0.014 0.025-0.028 0.036-0.042 0.159 0.244 0.316 0.49 0.471 0.737z">
            </path>
            <path fill="#e7502f" style="fill: var(--color4, #e7502f)" opacity="0.25"
                d="M24.21 11.965c0.021-0.028 0.157-0.219 0.088-0.207 0.139-0.025-0.192 0.211 0.156 0.066-0.165 0.142-0.070 0.327-0.067 0.519 0.003 0.311-0.053 0.62-0.117 0.924-0.101 0.481-0.252 0.949-0.471 1.397-0.477 0.976-1.287 1.915-2.248 2.524-0.475 0.301-0.94 0.404-1.481 0.542-0.342 0.088-0.369 0.249-0.551 0.553-0.378 0.632-0.749 1.262-1.082 1.916-0.398 0.78-0.784 1.562-1.148 2.356-1.228 2.675-2.227 5.447-2.751 8.316-0.013-1.69 0.415-3.432 0.954-5.043 0.393-1.174 0.904-2.306 1.449-3.426 0.132-0.272 0.332-0.62 0.388-0.92 0.039-0.21-0.081-0.412-0.136-0.633-0.215-0.861-0.199-1.826-0.011-2.692 0.208-0.955 0.808-1.398 1.824-1.533 0.371-0.049 0.844-0.031 1.184-0.176 0.371-0.158 0.524-0.676 0.735-1.009 0.567-0.894 1.24-1.752 2.013-2.506 0.214-0.209 0.444-0.401 0.689-0.58 0.154-0.113 0.48-0.251 0.584-0.39z">
            </path>
            <path fill="#f1f447" style="fill: var(--color2, #f1f447)" opacity="0.25"
                d="M12.53 29.354c-0.026-0.162 0.111-0.308 0.29-0.308h3.605c0.179 0 0.316 0.146 0.29 0.308l-0.279 1.728c-0.085 0.527-0.579 0.917-1.161 0.917h-1.305c-0.582 0-1.076-0.39-1.161-0.917l-0.279-1.728z">
            </path>
            <path fill="#f58b3d" style="fill: var(--color1, #f58b3d)"
                d="M9.571 29.93c0 1.143 0.099 2.070 1.422 2.070s1.422-0.927 1.422-2.070z"></path>
            <path fill="#f58b3d" style="fill: var(--color1, #f58b3d)"
                d="M11.387 29.217c-0.049 0.077-0.092 0.155-0.13 0.234-0.001-0.164 0.009-0.328 0.036-0.496 0.046-0.286 0.117-0.571 0.183-0.855 0.048-0.204 0.045-0.571 0.225-0.734 0.050-0.035 0.061 0.034 0.061 0.064 0.001 0.006-0-0.122-0.048-0.1-0.286 0.135-0.378 0.56-0.47 0.772-0.134 0.31-0.247 0.628-0.294 0.951-0.012 0.082-0.018 0.163-0.020 0.244-0.010-0.022-0.019-0.044-0.029-0.065-0.165-0.354-0.388-0.699-0.665-1.018-0.068-0.078-0.928-0.852-0.995-0.734 0.007 0.017 0.021 0.032 0.042 0.043 0.001 0.001 0.001 0 0.001-0.001 0.050 0.075 0.194 0.19 0.239 0.255 0.113 0.164 0.2 0.339 0.289 0.51 0.188 0.362 0.362 0.727 0.531 1.094 0.039 0.085 0.080 0.17 0.122 0.255-0.431-0.569-1.006-1.085-1.797-1.38 0.27 0.126 0.447 0.362 0.63 0.544 0.22 0.219 0.452 0.431 0.672 0.649 0.26 0.258 0.566 0.529 0.816 0.814 0.242 0.466 0.478 0.932 0.623 1.421-0.060-0.169-0.005-0.403-0.015-0.58-0.008-0.141-0.026-0.281-0.051-0.421 0.031 0.063 0.057 0.126 0.069 0.185-0.011-0.099-0.023-0.196-0.037-0.294 0.035-0.091 0.069-0.176 0.092-0.246 0.118-0.359 0.258-0.712 0.448-1.057 0.177-0.318 0.379-0.633 0.6-0.938 0.103-0.142 0.207-0.284 0.311-0.425 0.068-0.093 0.132-0.241 0.227-0.33-0.611 0.511-1.278 1.026-1.666 1.639z">
            </path>
            <path fill="#f58b3d" style="fill: var(--color1, #f58b3d)"
                d="M48.436 5.894c-0.175-0.534-0.586-0.953-1.013-1.336-0.831-0.746-1.277-1.207-1.574-2.299-0.174-0.642-0.351-1.322-0.904-1.788-0.402-0.339-1.094-0.624-1.632-0.381-0.827 0.452-1.050 1.379-0.966 2.209 0.103 1.029 0.629 1.664 1.638 2.043 0.569 0.213 0.947 0.495 1.255 0.986 0.247 0.392 0.391 0.884 0.701 1.24 0.464 0.532 1.044 0.768 1.76 0.68-0.67-1.128-1.453-2.267-2.398-3.217-0.088-0.095-0.61-0.461-0.505-0.624 0.116-0.179 0.651 0.494 0.647 0.49 0.274 0.288 0.528 0.595 0.778 0.904-0.001 0-0.001 0-0.002 0.001 0.257 0.317 0.512 0.639 0.761 0.965 0.101 0.138 0.199 0.278 0.294 0.421 0.138 0.21 0.358 0.806 0.584 0.936 0.048 0.028 0.093 0.043 0.135 0.049 0.154 0.231 0.304 0.464 0.447 0.7 0.373 0.616 0.693 1.266 0.84 1.961 0.043 0.203 0.013 0.962 0.164 1.108 0.277 0.268 0.196-0.248 0.179-0.404-0.138-1.289-0.644-2.388-1.378-3.472 0.226-0.27 0.258-0.956 0.187-1.173z">
            </path>
            <path fill="#f58b3d" style="fill: var(--color1, #f58b3d)"
                d="M38.957 6.517c0.292-0.315 0.993-0.368 1.422-0.347 0.531 0.026 1.076 0.144 1.581 0.287 0.832 0.235 1.64 0.665 2.373 1.081 0.088 0.050 1.176 0.649 1.080 0.754s-1.163-0.607-1.401-0.729c-0.508-0.261-0.973-0.571-1.533-0.744-0.58-0.179-1.192-0.25-1.802-0.245-0.078 0.001-0.333-0.049-0.339 0.057-0.005 0.104 0.417 0.050 0.491 0.050 0.307 0.003 0.617 0.029 0.92 0.078 0.568 0.091 1.102 0.275 1.588 0.558-0.136 0.289-0.461 0.422-0.802 0.35-0.295-0.062-0.583-0.216-0.871-0.261-0.199-0.031-0.398-0.012-0.591 0.039-0.509 0.135-0.802 0.412-1.362 0.22-0.439-0.151-1.172-0.694-0.753-1.146z">
            </path>
            <path fill="#f58b3d" style="fill: var(--color1, #f58b3d)"
                d="M37.703 1.449c-0.648-0.043-1.371 0.43-1.684 0.922-0.252 0.397-0.21 0.918-0.054 1.34 0.104 0.282 0.332 0.685 0.711 0.689 0.474 0.005 0.497-0.526 0.506-0.836 0.012-0.413 0.070-0.772 0.429-1.053 0.044-0.035 0.091-0.067 0.138-0.1 0.041-0.029 0.083-0.058 0.122-0.088 0.006-0.005 0.013-0.010 0.019-0.015 0.127-0.097 0.26-0.198 0.277-0.357 0.023-0.231-0.12-0.272-0.34-0.229-0.007 0.001-0.026 0.008-0.053 0.017-0.112 0.038-0.352 0.121-0.306 0.022 0.017-0.037 0.079-0.066 0.158-0.088 0.204-0.020 0.446-0.043 0.516-0.029 0.753 0.149 1.046 1.093 1.124 1.693 0.009 0.068 0.016 0.136 0.022 0.204h0.138c-0.010-0.16-0.022-0.32-0.052-0.479-0.111-0.594-0.458-1.466-1.219-1.563-0.028-0.004-0.131-0.004-0.256 0.002-0.059-0.030-0.126-0.048-0.196-0.052z">
            </path>
        </symbol>
        <symbol id="icon-checkmark" viewBox="0 0 32 32">
            <path d="M27 4l-15 15-7-7-5 5 12 12 20-20z"></path>
        </symbol>
        <symbol id="icon-close" viewBox="0 0 32 32">
            <path
                d="M26.021 3.634c-0.308 0.153-0.816 0.642-5.182 4.999l-4.841 4.832-4.679-4.679c-2.574-2.574-4.704-4.679-4.732-4.679-0.069 0-2.48 2.411-2.48 2.48 0 0.030 2.105 2.158 4.679 4.732l4.679 4.679-4.855 4.868c-3.813 3.824-4.882 4.924-4.985 5.134-0.105 0.212-0.132 0.35-0.132 0.667 0 0.507 0.133 0.786 0.594 1.246 0.398 0.398 0.741 0.581 1.147 0.61 0.037 0.003 0.079 0.005 0.123 0.005 0.313 0 0.602-0.104 0.834-0.278l-0.004 0.003c0.132-0.089 2.395-2.311 5.028-4.939l4.786-4.78 9.387 9.387 1.266-1.268 1.268-1.266-9.387-9.387 4.78-4.786c2.628-2.633 4.85-4.896 4.939-5.028 0.172-0.229 0.276-0.517 0.276-0.83 0-0.043-0.002-0.086-0.006-0.128l0 0.005c-0.028-0.402-0.208-0.743-0.596-1.129-0.645-0.645-1.246-0.795-1.906-0.471z">
            </path>
        </symbol>
        <symbol id="icon-arrow" viewBox="0 0 32 32">
            <path
                d="M7.703 17.067l-1.203-0.818 22.876-0.001v-0.64l-22.733 0.001 1.133-0.651-0.319-0.555-2.608 1.498 2.493 1.695 0.36-0.529z">
            </path>
        </symbol>
        <symbol id="icon-invalid" viewBox="0 0 32 32">
            <path fill="#e74a3b" style="fill: var(--color1, #e74a3b)"
                d="M0 16c0-8.838 7.162-16 16-16s16 7.162 16 16c0 8.837-7.163 16-16 16s-16-7.163-16-16zM10.938 13.006l2.944 2.938-2.944 2.994c-0.581 0.588-0.581 1.538 0 2.069 0.588 0.637 1.537 0.637 2.069 0l2.938-2.888 2.994 2.888c0.588 0.637 1.538 0.637 2.069 0 0.637-0.531 0.637-1.481 0-2.069l-2.888-2.994 2.888-2.938c0.637-0.531 0.637-1.481 0-2.069-0.531-0.581-1.481-0.581-2.069 0l-2.994 2.944-2.938-2.944c-0.531-0.581-1.481-0.581-2.069 0-0.581 0.588-0.581 1.537 0 2.069z">
            </path>
        </symbol>
        <symbol id="icon-valid" viewBox="0 0 32 32">
            <path fill="#3cbc81" style="fill: var(--color2, #3cbc81)"
                d="M0 16c0-8.838 7.162-16 16-16s16 7.162 16 16c0 8.837-7.163 16-16 16s-16-7.163-16-16zM23.237 13.238c0.681-0.681 0.681-1.794 0-2.475s-1.794-0.681-2.475 0l-6.763 6.762-2.763-2.762c-0.681-0.681-1.794-0.681-2.475 0s-0.681 1.794 0 2.475l4 4c0.681 0.681 1.794 0.681 2.475 0l8-8z">
            </path>
        </symbol>
    </defs>
</svg>